999
dxfrw 0.6.3
  0
SECTION
  2
HEADER
  9
$ACADVER
  1
AC1021
  9
$DWGCODEPAGE
  3
ANSI_1252
  9
$INSBASE
 10
0
 20
0
 30
0
  9
$EXTMIN
 10
-294.1449999266084
 20
-103.6424
 30
0
  9
$EXTMAX
 10
8.20491532660829
 20
8.207671400000022
 30
0
  9
$LIMMIN
 10
0
 20
0
  9
$LIMMAX
 10
420
 20
297
  9
$ORTHOMODE
 70
    0
  9
$REGENMODE
 70
    1
  9
$FILLMODE
 70
    1
  9
$QTEXTMODE
 70
    0
  9
$MIRRTEXT
 70
    0
  9
$LTSCALE
 40
1
  9
$ATTMODE
 70
    0
  9
$TEXTSIZE
 40
2.5
  9
$TRACEWID
 40
15.68
  9
$TEXTSTYLE
  7
STANDARD
  9
$CLAYER
  8
0
  9
$CELTYPE
  6
BYLAYER
  9
$CECOLOR
 62
  256
  9
$CELTSCALE
 40
1
  9
$DISPSILH
 70
    0
  9
$DIMSCALE
 40
2.5
  9
$DIMASZ
 40
2.5
  9
$DIMEXO
 40
0.625
  9
$DIMDLI
 40
3.75
  9
$DIMRND
 40
0
  9
$DIMDLE
 40
0
  9
$DIMEXE
 40
1.25
  9
$DIMTP
 40
0
  9
$DIMTM
 40
0
  9
$DIMTXT
 40
2.5
  9
$DIMCEN
 40
2.5
  9
$DIMTSZ
 40
0
  9
$DIMTOL
 70
    0
  9
$DIMLIM
 70
    0
  9
$DIMTIH
 70
    0
  9
$DIMTOH
 70
    0
  9
$DIMSE1
 70
    0
  9
$DIMSE2
 70
    0
  9
$DIMTAD
 70
    1
  9
$DIMZIN
 70
    8
  9
$DIMBLK
  1

  9
$DIMASO
 70
    1
  9
$DIMSHO
 70
    1
  9
$DIMPOST
  1

  9
$DIMAPOST
  1

  9
$DIMALT
 70
    0
  9
$DIMALTD
 70
    3
  9
$DIMALTF
 40
0.03937
  9
$DIMLFAC
 40
1
  9
$DIMTOFL
 70
    1
  9
$DIMTVP
 40
0
  9
$DIMTIX
 70
    0
  9
$DIMSOXD
 70
    0
  9
$DIMSAH
 70
    0
  9
$DIMBLK1
  1

  9
$DIMBLK2
  1

  9
$DIMSTYLE
  2
Standard
  9
$DIMCLRD
 70
    0
  9
$DIMCLRE
 70
    0
  9
$DIMCLRT
 70
    0
  9
$DIMTFAC
 40
1
  9
$DIMGAP
 40
0.625
  9
$DIMJUST
 70
    0
  9
$DIMSD1
 70
    0
  9
$DIMSD2
 70
    0
  9
$DIMTOLJ
 70
    0
  9
$DIMTZIN
 70
    8
  9
$DIMALTZ
 70
    0
  9
$DIMALTTZ
 70
    0
  9
$DIMUPT
 70
    0
  9
$DIMDEC
 70
    2
  9
$DIMTDEC
 70
    2
  9
$DIMALTU
 70
    2
  9
$DIMALTTD
 70
    3
  9
$DIMTXSTY
  7
STANDARD
  9
$DIMAUNIT
 70
    0
  9
$DIMADEC
 70
    0
  9
$DIMALTRND
 40
0
  9
$DIMAZIN
 70
    0
  9
$DIMDSEP
 70
   44
  9
$DIMATFIT
 70
    3
  9
$DIMFRAC
 70
    0
  9
$DIMLDRBLK
  1
STANDARD
  9
$DIMLUNIT
 70
    2
  9
$DIMLWD
 70
   -2
  9
$DIMLWE
 70
   -2
  9
$DIMTMOVE
 70
    0
  9
$DIMFXL
 40
1
  9
$DIMFXLON
 70
    0
  9
$DIMJOGANG
 40
0.7854
  9
$DIMTFILL
 70
    0
  9
$DIMTFILLCLR
 70
    0
  9
$DIMARCSYM
 70
    0
  9
$DIMLTYPE
  6

  9
$DIMLTEX1
  6

  9
$DIMLTEX2
  6

  9
$LUNITS
 70
    2
  9
$LUPREC
 70
    4
  9
$SKETCHINC
 40
1
  9
$FILLETRAD
 40
0
  9
$AUNITS
 70
    0
  9
$AUPREC
 70
    2
  9
$MENU
  1
.
  9
$ELEVATION
 40
0
  9
$PELEVATION
 40
0
  9
$THICKNESS
 40
0
  9
$LIMCHECK
 70
    0
  9
$CHAMFERA
 40
0
  9
$CHAMFERB
 40
0
  9
$CHAMFERC
 40
0
  9
$CHAMFERD
 40
0
  9
$SKPOLY
 70
    0
  9
$USRTIMER
 70
    1
  9
$ANGBASE
 50
0
  9
$ANGDIR
 70
    0
  9
$PDMODE
 70
   34
  9
$PDSIZE
 40
0
  9
$PLINEWID
 40
0
  9
$SPLFRAME
 70
    0
  9
$SPLINETYPE
 70
    2
  9
$SPLINESEGS
 70
    8
  9
$HANDSEED
  5
20000
  9
$SURFTAB1
 70
    6
  9
$SURFTAB2
 70
    6
  9
$SURFTYPE
 70
    6
  9
$SURFU
 70
    6
  9
$SURFV
 70
    6
  9
$UCSBASE
  2

  9
$UCSNAME
  2

  9
$UCSORG
 10
0
 20
0
 30
0
  9
$UCSXDIR
 10
1
 20
0
 30
0
  9
$UCSYDIR
 10
0
 20
1
 30
0
  9
$UCSORTHOREF
  2

  9
$UCSORTHOVIEW
 70
    0
  9
$UCSORGTOP
 10
0
 20
0
 30
0
  9
$UCSORGBOTTOM
 10
0
 20
0
 30
0
  9
$UCSORGLEFT
 10
0
 20
0
 30
0
  9
$UCSORGRIGHT
 10
0
 20
0
 30
0
  9
$UCSORGFRONT
 10
0
 20
0
 30
0
  9
$UCSORGBACK
 10
0
 20
0
 30
0
  9
$PUCSBASE
  2

  9
$PUCSNAME
  2

  9
$PUCSORG
 10
0
 20
0
 30
0
  9
$PUCSXDIR
 10
1
 20
0
 30
0
  9
$PUCSYDIR
 10
0
 20
1
 30
0
  9
$PUCSORTHOREF
  2

  9
$PUCSORTHOVIEW
 70
    0
  9
$PUCSORGTOP
 10
0
 20
0
 30
0
  9
$PUCSORGBOTTOM
 10
0
 20
0
 30
0
  9
$PUCSORGLEFT
 10
0
 20
0
 30
0
  9
$PUCSORGRIGHT
 10
0
 20
0
 30
0
  9
$PUCSORGFRONT
 10
0
 20
0
 30
0
  9
$PUCSORGBACK
 10
0
 20
0
 30
0
  9
$USERI1
 70
    0
  9
$USERI2
 70
    0
  9
$USERI3
 70
    0
  9
$USERI4
 70
    0
  9
$USERI5
 70
    0
  9
$USERR1
 40
0
  9
$USERR2
 40
0
  9
$USERR3
 40
0
  9
$USERR4
 40
0
  9
$USERR5
 40
0
  9
$WORLDVIEW
 70
    1
  9
$SHADEDGE
 70
    3
  9
$SHADEDIF
 70
   70
  9
$TILEMODE
 70
    1
  9
$MAXACTVP
 70
   64
  9
$PINSBASE
 10
0
 20
0
 30
0
  9
$PLIMCHECK
 70
    0
  9
$PEXTMIN
 10
0
 20
0
 30
0
  9
$PEXTMAX
 10
0
 20
0
 30
0
  9
$SNAPSTYLE
 70
    0
  9
$PLIMMIN
 10
0
 20
0
  9
$PLIMMAX
 10
210
 20
297
  9
$UNITMODE
 70
    0
  9
$VISRETAIN
 70
    1
  9
$PLINEGEN
 70
    0
  9
$PSLTSCALE
 70
    1
  9
$TREEDEPTH
 70
 3020
  9
$CMLSTYLE
  2
Standard
  9
$CMLJUST
 70
    0
  9
$CMLSCALE
 40
20
  9
$PROXYGRAPHICS
 70
    1
  9
$MEASUREMENT
 70
    1
  9
$CELWEIGHT
370
   -1
  9
$ENDCAPS
280
    0
  9
$JOINSTYLE
280
    0
  9
$LWDISPLAY
290
    0
  9
$INSUNITS
 70
    4
  9
$HYPERLINKBASE
  1

  9
$STYLESHEET
  1

  9
$XEDIT
290
    1
  9
$CEPSNTYPE
380
    0
  9
$PSTYLEMODE
290
    1
  9
$EXTNAMES
290
    1
  9
$PSVPSCALE
 40
1
  9
$OLESTARTUP
290
    0
  9
$SORTENTS
280
  127
  9
$INDEXCTL
280
    0
  9
$HIDETEXT
280
    1
  9
$XCLIPFRAME
290
    0
  9
$HALOGAP
280
    0
  9
$OBSCOLOR
 70
  257
  9
$OBSLTYPE
280
    0
  9
$INTERSECTIONDISPLAY
280
    0
  9
$INTERSECTIONCOLOR
 70
  257
  9
$DIMASSOC
280
    1
  9
$PROJECTNAME
  1

  9
$CAMERADISPLAY
290
    0
  9
$LENSLENGTH
 40
50
  9
$CAMERAHEIGHT
 40
0
  9
$STEPSPERSEC
 40
2
  9
$STEPSIZE
 40
50
  9
$3DDWFPREC
 40
2
  9
$PSOLWIDTH
 40
5
  9
$PSOLHEIGHT
 40
80
  9
$LOFTANG1
 40
1.570796326794897
  9
$LOFTANG2
 40
1.570796326794897
  9
$LOFTMAG1
 40
0
  9
$LOFTMAG2
 40
0
  9
$LOFTPARAM
 70
    7
  9
$LOFTNORMALS
280
    1
  9
$LATITUDE
 40
1
  9
$LONGITUDE
 40
1
  9
$NORTHDIRECTION
 40
0
  9
$TIMEZONE
 70
-8000
  9
$LIGHTGLYPHDISPLAY
280
    1
  9
$TILEMODELIGHTSYNCH
280
    1
  9
$SOLIDHIST
280
    1
  9
$SHOWHIST
280
    1
  9
$DWFFRAME
280
    2
  9
$DGNFRAME
280
    0
  9
$REALWORLDSCALE
290
    1
  9
$INTERFERECOLOR
 62
    1
  9
$CSHADOW
280
    0
  9
$SHADOWPLANELOCATION
 40
0
  0
ENDSEC
  0
SECTION
  2
CLASSES
  0
ENDSEC
  0
SECTION
  2
TABLES
  0
TABLE
  2
VPORT
  5
8
330
0
100
AcDbSymbolTable
 70
    1
  0
VPORT
  5
31
330
2
100
AcDbSymbolTableRecord
100
AcDbViewportTableRecord
  2
*ACTIVE
 70
    0
 10
0
 20
0
 11
1
 21
1
 12
-26.96000000000252
 22
23.68000000000221
 13
0
 23
0
 14
10
 24
10
 15
10
 25
10
 16
0
 26
0
 36
1
 17
0
 27
0
 37
0
 40
78.88000000000737
 41
2.170385395537525
 42
50
 43
0
 44
0
 50
0
 51
0
 71
    0
 72
  100
 73
    1
 74
    3
 75
    0
 76
    1
 77
    0
 78
    0
281
    0
 65
    1
110
0
120
0
130
0
111
1
121
0
131
0
112
0
122
1
132
0
 79
    0
146
0
348
10020
 60
    7
 61
    5
292
1
282
    1
141
0
142
0
 63
  250
421
3358443
  0
ENDTAB
  0
TABLE
  2
LTYPE
  5
5
330
0
100
AcDbSymbolTable
 70
    4
  0
LTYPE
  5
14
330
5
100
AcDbSymbolTableRecord
100
AcDbLinetypeTableRecord
  2
ByBlock
 70
    0
  3

 72
   65
 73
    0
 40
0
  0
LTYPE
  5
15
330
5
100
AcDbSymbolTableRecord
100
AcDbLinetypeTableRecord
  2
ByLayer
 70
    0
  3

 72
   65
 73
    0
 40
0
  0
LTYPE
  5
16
330
5
100
AcDbSymbolTableRecord
100
AcDbLinetypeTableRecord
  2
Continuous
 70
    0
  3
Solid line
 72
   65
 73
    0
 40
0
  0
LTYPE
  5
32
330
5
100
AcDbSymbolTableRecord
100
AcDbLinetypeTableRecord
  2
DOT
 70
    0
  3
Dot . . . . . . . . . . . . . . . . . . . . . .
 72
   65
 73
    2
 40
6.35
 49
0
 74
    0
 49
-6.35
 74
    0
  0
LTYPE
  5
33
330
5
100
AcDbSymbolTableRecord
100
AcDbLinetypeTableRecord
  2
DOTTINY
 70
    0
  3
Dot (.15x) .....................................
 72
   65
 73
    2
 40
0.9525
 49
0
 74
    0
 49
-0.9525
 74
    0
  0
LTYPE
  5
34
330
5
100
AcDbSymbolTableRecord
100
AcDbLinetypeTableRecord
  2
DOT2
 70
    0
  3
Dot (.5x) .....................................
 72
   65
 73
    2
 40
3.175
 49
0
 74
    0
 49
-3.175
 74
    0
  0
LTYPE
  5
35
330
5
100
AcDbSymbolTableRecord
100
AcDbLinetypeTableRecord
  2
DOTX2
 70
    0
  3
Dot (2x) .  .  .  .  .  .  .  .  .  .  .  .  .
 72
   65
 73
    2
 40
12.7
 49
0
 74
    0
 49
-12.7
 74
    0
  0
LTYPE
  5
36
330
5
100
AcDbSymbolTableRecord
100
AcDbLinetypeTableRecord
  2
DASHED
 70
    0
  3
Dashed _ _ _ _ _ _ _ _ _ _ _ _ _ _ _ _ _
 72
   65
 73
    2
 40
19.05
 49
12.7
 74
    0
 49
-6.35
 74
    0
  0
LTYPE
  5
37
330
5
100
AcDbSymbolTableRecord
100
AcDbLinetypeTableRecord
  2
DASHEDTINY
 70
    0
  3
Dashed (.15x) _ _ _ _ _ _ _ _ _ _ _ _ _ _ _ _ _
 72
   65
 73
    2
 40
2.8575
 49
1.905
 74
    0
 49
-0.9525
 74
    0
  0
LTYPE
  5
38
330
5
100
AcDbSymbolTableRecord
100
AcDbLinetypeTableRecord
  2
DASHED2
 70
    0
  3
Dashed (.5x) _ _ _ _ _ _ _ _ _ _ _ _ _ _ _ _ _
 72
   65
 73
    2
 40
9.524999999999999
 49
6.35
 74
    0
 49
-3.175
 74
    0
  0
LTYPE
  5
39
330
5
100
AcDbSymbolTableRecord
100
AcDbLinetypeTableRecord
  2
DASHEDX2
 70
    0
  3
Dashed (2x) ____  ____  ____  ____  ____  ___
 72
   65
 73
    2
 40
38.09999999999999
 49
25.4
 74
    0
 49
-12.7
 74
    0
  0
LTYPE
  5
3A
330
5
100
AcDbSymbolTableRecord
100
AcDbLinetypeTableRecord
  2
DASHDOT
 70
    0
  3
Dash dot __ . __ . __ . __ . __ . __ . __ . __
 72
   65
 73
    4
 40
25.4
 49
12.7
 74
    0
 49
-6.35
 74
    0
 49
0
 74
    0
 49
-6.35
 74
    0
  0
LTYPE
  5
3B
330
5
100
AcDbSymbolTableRecord
100
AcDbLinetypeTableRecord
  2
DASHDOTTINY
 70
    0
  3
Dash dot (.15x) _._._._._._._._._._._._._._._.
 72
   65
 73
    4
 40
3.81
 49
1.905
 74
    0
 49
-0.9525
 74
    0
 49
0
 74
    0
 49
-0.9525
 74
    0
  0
LTYPE
  5
3C
330
5
100
AcDbSymbolTableRecord
100
AcDbLinetypeTableRecord
  2
DASHDOT2
 70
    0
  3
Dash dot (.5x) _._._._._._._._._._._._._._._.
 72
   65
 73
    4
 40
12.7
 49
6.35
 74
    0
 49
-3.175
 74
    0
 49
0
 74
    0
 49
-3.175
 74
    0
  0
LTYPE
  5
3D
330
5
100
AcDbSymbolTableRecord
100
AcDbLinetypeTableRecord
  2
DASHDOTX2
 70
    0
  3
Dash dot (2x) ____  .  ____  .  ____  .  ___
 72
   65
 73
    4
 40
50.8
 49
25.4
 74
    0
 49
-12.7
 74
    0
 49
0
 74
    0
 49
-12.7
 74
    0
  0
LTYPE
  5
3E
330
5
100
AcDbSymbolTableRecord
100
AcDbLinetypeTableRecord
  2
DIVIDE
 70
    0
  3
Divide ____ . . ____ . . ____ . . ____ . . ____
 72
   65
 73
    6
 40
31.75
 49
12.7
 74
    0
 49
-6.35
 74
    0
 49
0
 74
    0
 49
-6.35
 74
    0
 49
0
 74
    0
 49
-6.35
 74
    0
  0
LTYPE
  5
3F
330
5
100
AcDbSymbolTableRecord
100
AcDbLinetypeTableRecord
  2
DIVIDETINY
 70
    0
  3
Divide (.15x) __..__..__..__..__..__..__..__.._
 72
   65
 73
    6
 40
4.7625
 49
1.905
 74
    0
 49
-0.9525
 74
    0
 49
0
 74
    0
 49
-0.9525
 74
    0
 49
0
 74
    0
 49
-0.9525
 74
    0
  0
LTYPE
  5
40
330
5
100
AcDbSymbolTableRecord
100
AcDbLinetypeTableRecord
  2
DIVIDE2
 70
    0
  3
Divide (.5x) __..__..__..__..__..__..__..__.._
 72
   65
 73
    6
 40
15.875
 49
6.35
 74
    0
 49
-3.175
 74
    0
 49
0
 74
    0
 49
-3.175
 74
    0
 49
0
 74
    0
 49
-3.175
 74
    0
  0
LTYPE
  5
41
330
5
100
AcDbSymbolTableRecord
100
AcDbLinetypeTableRecord
  2
DIVIDEX2
 70
    0
  3
Divide (2x) ________  .  .  ________  .  .  _
 72
   65
 73
    6
 40
63.5
 49
25.4
 74
    0
 49
-12.7
 74
    0
 49
0
 74
    0
 49
-12.7
 74
    0
 49
0
 74
    0
 49
-12.7
 74
    0
  0
LTYPE
  5
42
330
5
100
AcDbSymbolTableRecord
100
AcDbLinetypeTableRecord
  2
BORDER
 70
    0
  3
Border __ __ . __ __ . __ __ . __ __ . __ __ .
 72
   65
 73
    6
 40
44.45
 49
12.7
 74
    0
 49
-6.35
 74
    0
 49
12.7
 74
    0
 49
-6.35
 74
    0
 49
0
 74
    0
 49
-6.35
 74
    0
  0
LTYPE
  5
43
330
5
100
AcDbSymbolTableRecord
100
AcDbLinetypeTableRecord
  2
BORDERTINY
 70
    0
  3
Border (.15x) __.__.__.__.__.__.__.__.__.__.__.
 72
   65
 73
    6
 40
6.6675
 49
1.905
 74
    0
 49
-0.9525
 74
    0
 49
1.905
 74
    0
 49
-0.9525
 74
    0
 49
0
 74
    0
 49
-0.9525
 74
    0
  0
LTYPE
  5
44
330
5
100
AcDbSymbolTableRecord
100
AcDbLinetypeTableRecord
  2
BORDER2
 70
    0
  3
Border (.5x) __.__.__.__.__.__.__.__.__.__.__.
 72
   65
 73
    6
 40
22.225
 49
6.35
 74
    0
 49
-3.175
 74
    0
 49
6.35
 74
    0
 49
-3.175
 74
    0
 49
0
 74
    0
 49
-3.175
 74
    0
  0
LTYPE
  5
45
330
5
100
AcDbSymbolTableRecord
100
AcDbLinetypeTableRecord
  2
BORDERX2
 70
    0
  3
Border (2x) ____  ____  .  ____  ____  .  ___
 72
   65
 73
    6
 40
88.89999999999999
 49
25.4
 74
    0
 49
-12.7
 74
    0
 49
25.4
 74
    0
 49
-12.7
 74
    0
 49
0
 74
    0
 49
-12.7
 74
    0
  0
LTYPE
  5
46
330
5
100
AcDbSymbolTableRecord
100
AcDbLinetypeTableRecord
  2
CENTER
 70
    0
  3
Center ____ _ ____ _ ____ _ ____ _ ____ _ ____
 72
   65
 73
    4
 40
50.8
 49
31.75
 74
    0
 49
-6.35
 74
    0
 49
6.35
 74
    0
 49
-6.35
 74
    0
  0
LTYPE
  5
47
330
5
100
AcDbSymbolTableRecord
100
AcDbLinetypeTableRecord
  2
CENTERTINY
 70
    0
  3
Center (.15x) ___ _ ___ _ ___ _ ___ _ ___ _ ___
 72
   65
 73
    4
 40
7.619999999999999
 49
4.7625
 74
    0
 49
-0.9525
 74
    0
 49
0.9525
 74
    0
 49
-0.9525
 74
    0
  0
LTYPE
  5
48
330
5
100
AcDbSymbolTableRecord
100
AcDbLinetypeTableRecord
  2
CENTER2
 70
    0
  3
Center (.5x) ___ _ ___ _ ___ _ ___ _ ___ _ ___
 72
   65
 73
    4
 40
28.575
 49
19.05
 74
    0
 49
-3.175
 74
    0
 49
3.175
 74
    0
 49
-3.175
 74
    0
  0
LTYPE
  5
49
330
5
100
AcDbSymbolTableRecord
100
AcDbLinetypeTableRecord
  2
CENTERX2
 70
    0
  3
Center (2x) ________  __  ________  __  _____
 72
   65
 73
    4
 40
101.6
 49
63.5
 74
    0
 49
-12.7
 74
    0
 49
12.7
 74
    0
 49
-12.7
 74
    0
  0
ENDTAB
  0
TABLE
  2
LAYER
  5
2
330
0
100
AcDbSymbolTable
 70
    1
  0
LAYER
  5
10
330
2
100
AcDbSymbolTableRecord
100
AcDbLayerTableRecord
  2
0
 70
    0
 62
    7
  6
CONTINUOUS
370
   -3
390
F
  0
ENDTAB
  0
TABLE
  2
STYLE
  5
3
330
0
100
AcDbSymbolTable
 70
    3
  0
STYLE
  5
4A
330
2
100
AcDbSymbolTableRecord
100
AcDbTextStyleTableRecord
  2
Standard
 70
    0
 40
0
 41
1
 50
0
 71
    0
 42
1
  3
txt
  4

  0
ENDTAB
  0
TABLE
  2
VIEW
  5
6
330
0
100
AcDbSymbolTable
 70
    0
  0
ENDTAB
  0
TABLE
  2
UCS
  5
7
330
0
100
AcDbSymbolTable
 70
    0
  0
ENDTAB
  0
TABLE
  2
APPID
  5
9
330
0
100
AcDbSymbolTable
 70
    1
  0
APPID
  5
12
330
9
100
AcDbSymbolTableRecord
100
AcDbRegAppTableRecord
  2
ACAD
 70
    0
  0
APPID
  5
4B
330
9
100
AcDbSymbolTableRecord
100
AcDbRegAppTableRecord
  2
LibreCad
 70
    0
  0
ENDTAB
  0
TABLE
  2
DIMSTYLE
  5
A
330
0
100
AcDbSymbolTable
 70
    1
100
AcDbDimStyleTable
 71
    1
  0
DIMSTYLE
105
4C
330
A
100
AcDbSymbolTableRecord
100
AcDbDimStyleTableRecord
  2
Standard
 70
    0
 40
1
 41
2.5
 42
0.625
 43
0.38
 44
1.25
 45
0
 46
0
 47
0
 48
0
 49
1
140
2.5
141
0.09
142
2.5
143
25.4
144
1
145
0
146
1
147
0.625
148
0
 71
    0
 72
    0
 73
    0
 74
    1
 75
    0
 76
    0
 77
    0
 78
    1
 79
    0
170
    0
171
    2
172
    0
173
    0
174
    0
175
    0
176
    0
177
    0
178
    0
179
    0
271
    2
272
    4
273
    2
274
    2
275
    0
276
    0
277
    2
278
    0
279
    0
280
    0
281
    0
282
    0
283
    1
284
    0
285
    0
286
    0
288
    0
289
    3
340
standard
341

371
   -2
372
   -2
  0
ENDTAB
  0
TABLE
  2
BLOCK_RECORD
  5
1
330
0
100
AcDbSymbolTable
 70
    2
  0
BLOCK_RECORD
  5
1F
330
1
100
AcDbSymbolTableRecord
100
AcDbBlockTableRecord
  2
*Model_Space
 70
    0
280
    1
281
    0
  0
BLOCK_RECORD
  5
1E
330
1
100
AcDbSymbolTableRecord
100
AcDbBlockTableRecord
  2
*Paper_Space
 70
    0
280
    1
281
    0
  0
ENDTAB
  0
ENDSEC
  0
SECTION
  2
BLOCKS
  0
BLOCK
  5
20
330
1F
100
AcDbEntity
  8
0
100
AcDbBlockBegin
  2
*Model_Space
 70
    0
 10
0
 20
0
 30
0
  3
*Model_Space
  1

  0
ENDBLK
  5
21
330
1F
100
AcDbEntity
  8
0
100
AcDbBlockEnd
  0
BLOCK
  5
1C
330
1B
100
AcDbEntity
  8
0
100
AcDbBlockBegin
  2
*Paper_Space
 70
    0
 10
0
 20
0
 30
0
  3
*Paper_Space
  1

  0
ENDBLK
  5
1D
330
1F
100
AcDbEntity
  8
0
100
AcDbBlockEnd
  0
ENDSEC
  0
SECTION
  2
ENTITIES
  0
LWPOLYLINE
  5
4D
100
AcDbEntity
  8
0
  6
ByLayer
 62
  256
370
   -1
100
AcDbPolyline
 90
   54
 70
    1
 43
0
 10
-280.938
 20
-64.24260000000001
 10
-278.5570244140602
 20
-64.24260000000001
 10
-278.5570244140602
 20
-65.64929389648016
 10
-280.9711224840067
 20
-65.64929389648016
 42
0.4142135623731367
 10
-281.9711224840067
 20
-66.64929389648016
 10
-281.9711224840068
 20
-72.76800610351016
 42
0.4142135623731283
 10
-280.9711224840067
 20
-73.76800610351013
 10
-265.5570244140598
 20
-73.76800610351006
 42
0.007125173202094843
 10
-265.5285280616613
 20
-73.76760000000002
 10
-264.5570000000001
 20
-73.76760000000002
 10
-264.5570000000001
 20
-73.1682
 10
-263.756
 20
-73.1682
 10
-263.756
 20
-60.36770000000001
 10
-264.5570000000001
 20
-60.36770000000001
 10
-264.5570000000001
 20
-59.7683
 10
-264.5570244140598
 20
-59.7683
 10
-264.5570244140599
 20
-55.71798779296985
 42
-0.4142135623730534
 10
-263.5570244140598
 20
-54.71798779296986
 10
-256.9752678222603
 20
-54.71798779296995
 42
-0.4142135623731013
 10
-255.9752678222604
 20
-55.71798779296986
 42
0.4142135623731262
 10
-254.9752678222601
 20
-56.71798779296986
 10
-249.9752678222601
 20
-56.71798779296961
 42
0.4142135623730929
 10
-248.9752678222601
 20
-55.71798779296985
 42
-0.4142135623730971
 10
-247.9752678222602
 20
-54.71798779296992
 10
-246.5070183105401
 20
-54.71798779296997
 42
0.006962673430233404
 10
-246.4791716669978
 20
-54.7176
 10
-245.5070000000001
 20
-54.7176
 10
-245.5070000000001
 20
-54.11820000000002
 10
-244.706
 20
-54.11820000000002
 10
-244.706
 20
-41.3177
 10
-245.5070000000001
 20
-41.3177
 10
-245.5070000000001
 20
-40.71830000000001
 10
-247.9752678222602
 20
-40.71830000000001
 10
-247.9752678222602
 20
-40.71791220703014
 42
-0.4142135623730867
 10
-248.9752678222601
 20
-39.71791220703017
 42
0.4142135623730638
 10
-249.9752678222601
 20
-38.71791220703041
 10
-254.9752678222601
 20
-38.71791220703015
 42
0.4142135623731262
 10
-255.9752678222604
 20
-39.71791220703015
 42
-0.4142135623730846
 10
-256.9752678222603
 20
-40.71791220703012
 10
-256.9752678222603
 20
-40.71830000000001
 10
-271.413
 20
-40.71830000000001
 10
-271.4130000000001
 20
-40.7179
 10
-271.9063137165133
 20
-40.71789999999993
 42
-0.3981733714295219
 10
-272.8514684406462
 20
-39.71960584719212
 42
0.414213562373122
 10
-273.8516691339441
 20
-38.71980658077562
 10
-278.8516690332294
 20
-38.72081014797872
 42
0.4142135623730845
 10
-279.8514682996458
 20
-39.72101084127609
 10
-279.8512443847603
 20
-41.83669389648016
 10
-280.0499799122726
 20
-41.83665048550482
 10
-280.0499799122726
 20
-41.83669389648016
 10
-280.8512443847603
 20
-41.83669389648017
 42
0.4142135623731283
 10
-281.8512443847603
 20
-42.83669389648017
 10
-281.8512443847603
 20
-47.83669389648017
 42
0.3889943335940047
 10
-280.938
 20
-48.83292352022377
  0
LWPOLYLINE
  5
4E
100
AcDbEntity
  8
0
  6
ByLayer
 62
  256
370
   -1
100
AcDbPolyline
 90
   40
 70
    1
 43
0
 10
-6.087778503410384
 20
-21.66830000000001
 10
-6.087778503410412
 20
-20.66800000000006
 42
0.4142135623730963
 10
-7.087778503410402
 20
-19.66800000000007
 10
-12.0877785034104
 20
-19.66800000000001
 42
0.4142135623731278
 10
-13.0877785034105
 20
-20.66800000000005
 42
-0.4142135623730888
 10
-14.08777850341037
 20
-21.66799999999995
 10
-28.96375506591035
 20
-21.66800000000017
 42
-0.4142135623731211
 10
-29.96375506591037
 20
-20.66800000000006
 42
0.4142135623730971
 10
-30.96375506591034
 20
-19.66800000000008
 10
-35.96375506591032
 20
-19.66800000000004
 42
0.4211569531143979
 10
-36.96375506591042
 20
-20.69234393539904
 42
-0.3661354358202243
 10
-37.80964098939647
 20
-21.66830000000001
 10
-40.4315
 20
-21.66830000000001
 10
-40.4315
 20
-22.26769999999999
 10
-41.2323
 20
-22.26769999999999
 10
-41.2323
 20
-35.06830000000001
 10
-40.4315
 20
-35.06830000000001
 10
-40.4315
 20
-35.66759999999999
 10
-39.57628607650695
 20
-35.66759999999999
 42
0.04099856678959946
 10
-39.41311646334034
 20
-35.68100196769957
 10
-37.96375506591033
 20
-35.68100196769955
 42
-0.4142135623730929
 10
-36.96375506591033
 20
-36.68100196769956
 42
0.4142135623730867
 10
-35.96375506591033
 20
-37.68100196769956
 10
-30.96375506591034
 20
-37.68100196769956
 42
0.414213562373094
 10
-29.96375506591034
 20
-36.68100196769956
 42
-0.4142135623730878
 10
-28.96375506591038
 20
-35.68100196769956
 10
-14.08777850341039
 20
-35.68100196769957
 42
-0.4142135623730924
 10
-13.0877785034104
 20
-36.68100196769955
 42
0.4142135623730971
 10
-12.08777850341039
 20
-37.68100196769956
 10
-7.087778503410398
 20
-37.68100196769956
 42
0.4142135623730919
 10
-6.087778503410398
 20
-36.68100196769956
 10
-6.087778503410384
 20
-35.68100196769956
 10
-6.000811035150413
 20
-35.68100196769957
 42
0.0409985667895959
 10
-5.837641421983797
 20
-35.66759999999999
 10
-5.000910000000003
 20
-35.66759999999999
 10
-5.000910000000002
 20
-35.06830000000001
 10
-4.200280000000002
 20
-35.06830000000001
 10
-4.200280000000002
 20
-22.26769999999999
 10
-5.000910000000002
 20
-22.26769999999999
 10
-5.000910000000002
 20
-21.66830000000001
  0
LWPOLYLINE
  5
4F
100
AcDbEntity
  8
0
  6
ByLayer
 62
  256
370
   -1
100
AcDbPolyline
 90
   36
 70
    1
 43
0
 10
-250.2695
 20
-79.41770000000002
 10
-250.2695
 20
-77.81799389648006
 42
0.4142135623730909
 10
-251.2695
 20
-76.81799389648008
 10
-257.3565239257801
 20
-76.81799389648013
 42
0.414213562373145
 10
-258.3565239257799
 20
-77.81799389648008
 42
-0.414213562373095
 10
-259.35652392578
 20
-78.81799389647996
 10
-274.2325004882802
 20
-78.81799389648017
 42
-0.414213562373095
 10
-275.2325004882801
 20
-77.81799389648006
 42
0.4142135623730617
 10
-276.2325004882801
 20
-76.81799389648006
 10
-282.31956713867
 20
-76.81799389648008
 42
0.4142135623731283
 10
-283.31956713867
 20
-77.81799389648006
 10
-283.3195671386702
 20
-79.41770000000002
 10
-284.1200000000001
 20
-79.41770000000002
 10
-284.1200000000001
 20
-92.21819999999997
 10
-283.3190000000001
 20
-92.21819999999997
 10
-283.3190000000001
 20
-92.81760000000003
 10
-282.3476320243026
 20
-92.81760000000001
 42
0.007017257952823079
 10
-282.31956713867
 20
-92.81799389648
 10
-282.23250048828
 20
-92.81799389648006
 10
-282.2325004882801
 20
-93.81799389648006
 42
0.4142135623730617
 10
-281.2325004882801
 20
-94.81799389648006
 10
-276.2325004882801
 20
-94.81799389648005
 42
0.4142135623730867
 10
-275.23250048828
 20
-93.81799389648006
 42
-0.4142135623730909
 10
-274.23250048828
 20
-92.81799389648006
 10
-259.3565239257799
 20
-92.81799389648008
 42
-0.4142135623730867
 10
-258.35652392578
 20
-93.81799389648006
 42
0.4142135623731034
 10
-257.3565239257799
 20
-94.81799389648003
 10
-252.3565239257799
 20
-94.81799389648006
 42
0.4142135623731325
 10
-251.3565239257799
 20
-93.81799389648006
 10
-251.3565239257799
 20
-92.81799389648006
 10
-251.2695
 20
-92.81799389648006
 42
0.007017257952488886
 10
-251.2414351143661
 20
-92.81760000000003
 10
-250.27
 20
-92.81760000000003
 10
-250.27
 20
-92.21819999999997
 10
-249.47
 20
-92.21819999999997
 10
-249.47
 20
-79.41770000000002
  0
LWPOLYLINE
  5
50
100
AcDbEntity
  8
0
  6
ByLayer
 62
  256
370
   -1
100
AcDbPolyline
 90
   12
 70
    1
 43
0
 10
-81.8511391505963
 20
-9.117119999999996
 10
-81.8511391505963
 20
-1.615293995945048
 42
0.4144824250151237
 10
-82.85113915059631
 20
-0.6156741167592744
 10
-88.9699391505963
 20
-0.6180000000000757
 42
0.4142135623730949
 10
-89.9699391505963
 20
-1.618000000000048
 10
-89.96993915059619
 20
-17.61529399596906
 42
0.4142135623730929
 10
-88.96993915059619
 20
-18.61529399596905
 10
-82.85113915059631
 20
-18.61529399596906
 42
0.414213562373094
 10
-81.85113915059631
 20
-17.61529399596906
 10
-81.8511391505963
 20
-11.9173
 10
-81.85069999999997
 20
-11.91729999999999
 10
-81.85069999999997
 20
-9.117119999999996
  0
CIRCLE
  5
51
100
AcDbEntity
  8
0
  6
ByLayer
 62
  256
370
   -1
100
AcDbCircle
 10
-242.9700423
 20
5.207671400000007
 40
1.149999999999984
  0
LWPOLYLINE
  5
52
100
AcDbEntity
  8
0
  6
ByLayer
 62
  256
370
   -1
100
AcDbPolyline
 90
   12
 70
    1
 43
0
 10
-69.0065
 20
-16.61780000000001
 10
-55.0072
 20
-16.61780000000001
 10
-55.0072
 20
-16.0183
 10
-54.2064
 20
-16.0183
 10
-54.2064
 20
-3.217719999999993
 10
-55.0072
 20
-3.217719999999993
 10
-55.0072
 20
-2.618270000000003
 10
-69.0065
 20
-2.618270000000003
 10
-69.0065
 20
-3.217719999999993
 10
-69.8073
 20
-3.217719999999993
 10
-69.8073
 20
-16.0183
 10
-69.0065
 20
-16.0183
  0
LWPOLYLINE
  5
53
100
AcDbEntity
  8
0
  6
ByLayer
 62
  256
370
   -1
100
AcDbPolyline
 90
   12
 70
    1
 43
0
 10
-22.1823
 20
-60.36770000000001
 10
-22.1823
 20
-73.1682
 10
-21.38170000000001
 20
-73.1682
 10
-21.38170000000001
 20
-73.76760000000002
 10
-7.382159999999995
 20
-73.76760000000002
 10
-7.382160000000004
 20
-73.1682
 10
-6.581530000000004
 20
-73.1682
 10
-6.581530000000004
 20
-60.36770000000001
 10
-7.382160000000004
 20
-60.36770000000001
 10
-7.382160000000004
 20
-59.7683
 10
-21.38170000000001
 20
-59.7683
 10
-21.38170000000001
 20
-60.36770000000001
  0
LWPOLYLINE
  5
54
100
AcDbEntity
  8
0
  6
ByLayer
 62
  256
370
   -1
100
AcDbPolyline
 90
   12
 70
    1
 43
0
 10
-97.58150000000001
 20
-22.26769999999999
 10
-98.38230000000001
 20
-22.26769999999999
 10
-98.38230000000001
 20
-35.06830000000001
 10
-97.58150000000001
 20
-35.06830000000001
 10
-97.58150000000001
 20
-35.66759999999999
 10
-83.58220000000001
 20
-35.66759999999999
 10
-83.58220000000001
 20
-35.06830000000001
 10
-82.7814
 20
-35.06830000000001
 10
-82.7814
 20
-22.26769999999999
 10
-83.58220000000001
 20
-22.26769999999999
 10
-83.58220000000001
 20
-21.66830000000001
 10
-97.58150000000001
 20
-21.66830000000001
  0
LWPOLYLINE
  5
55
100
AcDbEntity
  8
0
  6
ByLayer
 62
  256
370
   -1
100
AcDbPolyline
 90
   12
 70
    1
 43
0
 10
-117.432
 20
-22.26769999999999
 10
-117.432
 20
-35.06830000000001
 10
-116.632
 20
-35.06830000000001
 10
-116.632
 20
-35.66759999999999
 10
-102.632
 20
-35.66759999999999
 10
-102.632
 20
-35.06830000000001
 10
-101.831
 20
-35.06830000000001
 10
-101.831
 20
-22.26769999999999
 10
-102.632
 20
-22.26769999999999
 10
-102.632
 20
-21.66830000000001
 10
-116.632
 20
-21.66830000000001
 10
-116.632
 20
-22.26769999999999
  0
LWPOLYLINE
  5
56
100
AcDbEntity
  8
0
  6
ByLayer
 62
  256
370
   -1
100
AcDbPolyline
 90
   12
 70
    1
 43
0
 10
-135.97
 20
-79.41770000000002
 10
-135.97
 20
-78.81829999999999
 10
-149.9690000000001
 20
-78.81829999999999
 10
-149.9690000000001
 20
-79.41770000000002
 10
-150.77
 20
-79.41770000000002
 10
-150.77
 20
-92.21819999999997
 10
-149.9690000000001
 20
-92.21819999999997
 10
-149.9690000000001
 20
-92.81760000000003
 10
-135.97
 20
-92.81760000000003
 10
-135.97
 20
-92.21819999999997
 10
-135.17
 20
-92.21819999999997
 10
-135.17
 20
-79.41770000000002
  0
LWPOLYLINE
  5
57
100
AcDbEntity
  8
0
  6
ByLayer
 62
  256
370
   -1
100
AcDbPolyline
 90
   12
 70
    1
 43
0
 10
-168.506
 20
-54.11820000000002
 10
-168.506
 20
-41.3177
 10
-169.307
 20
-41.3177
 10
-169.307
 20
-40.71830000000001
 10
-183.3070000000001
 20
-40.71830000000001
 10
-183.3070000000001
 20
-41.3177
 10
-184.1070000000001
 20
-41.3177
 10
-184.1070000000001
 20
-54.11820000000002
 10
-183.3070000000001
 20
-54.11820000000002
 10
-183.3070000000001
 20
-54.7176
 10
-169.307
 20
-54.7176
 10
-169.307
 20
-54.11820000000002
  0
LWPOLYLINE
  5
58
100
AcDbEntity
  8
0
  6
ByLayer
 62
  256
370
   -1
100
AcDbPolyline
 90
   12
 70
    1
 43
0
 10
-93.10720000000002
 20
-40.71830000000001
 10
-107.107
 20
-40.71830000000001
 10
-107.107
 20
-41.3177
 10
-107.907
 20
-41.3177
 10
-107.907
 20
-54.11820000000002
 10
-107.107
 20
-54.11820000000002
 10
-107.107
 20
-54.7176
 10
-93.10720000000002
 20
-54.7176
 10
-93.10720000000002
 20
-54.11820000000002
 10
-92.3064
 20
-54.11820000000002
 10
-92.3064
 20
-41.3177
 10
-93.10720000000002
 20
-41.3177
  0
LWPOLYLINE
  5
59
100
AcDbEntity
  8
0
  6
ByLayer
 62
  256
370
   -1
100
AcDbPolyline
 90
   12
 70
    1
 43
0
 10
-230.932
 20
-16.0183
 10
-230.932
 20
-16.61780000000001
 10
-216.932
 20
-16.61780000000001
 10
-216.932
 20
-16.0183
 10
-216.131
 20
-16.0183
 10
-216.131
 20
-3.217719999999993
 10
-216.932
 20
-3.217719999999993
 10
-216.932
 20
-2.618270000000003
 10
-230.932
 20
-2.618270000000003
 10
-230.932
 20
-3.217719999999993
 10
-231.7320000000001
 20
-3.217719999999993
 10
-231.7320000000001
 20
-16.0183
  0
LWPOLYLINE
  5
5A
100
AcDbEntity
  8
0
  6
ByLayer
 62
  256
370
   -1
100
AcDbPolyline
 90
   12
 70
    1
 43
0
 10
-178.544
 20
-60.36770000000001
 10
-179.345
 20
-60.36770000000001
 10
-179.345
 20
-73.1682
 10
-178.544
 20
-73.1682
 10
-178.544
 20
-73.76760000000002
 10
-164.5450000000001
 20
-73.76760000000002
 10
-164.5450000000001
 20
-73.1682
 10
-163.7450000000001
 20
-73.1682
 10
-163.7450000000001
 20
-60.36770000000001
 10
-164.5450000000001
 20
-60.36770000000001
 10
-164.5450000000001
 20
-59.7683
 10
-178.544
 20
-59.7683
  0
LWPOLYLINE
  5
5B
100
AcDbEntity
  8
0
  6
ByLayer
 62
  256
370
   -1
100
AcDbPolyline
 90
   12
 70
    1
 43
0
 10
-178.8320000000001
 20
-35.06830000000001
 10
-178.031
 20
-35.06830000000001
 10
-178.031
 20
-22.26769999999999
 10
-178.8320000000001
 20
-22.26769999999999
 10
-178.8320000000001
 20
-21.66830000000001
 10
-192.832
 20
-21.66830000000001
 10
-192.832
 20
-22.26769999999999
 10
-193.6320000000001
 20
-22.26769999999999
 10
-193.6320000000001
 20
-35.06830000000001
 10
-192.832
 20
-35.06830000000001
 10
-192.832
 20
-35.66759999999999
 10
-178.8320000000001
 20
-35.66759999999999
  0
LWPOLYLINE
  5
5C
100
AcDbEntity
  8
0
  6
ByLayer
 62
  256
370
   -1
100
AcDbPolyline
 90
   12
 70
    1
 43
0
 10
-230.932
 20
-22.26769999999999
 10
-231.7320000000001
 20
-22.26769999999999
 10
-231.7320000000001
 20
-35.06830000000001
 10
-230.932
 20
-35.06830000000001
 10
-230.932
 20
-35.66759999999999
 10
-216.932
 20
-35.66759999999999
 10
-216.932
 20
-35.06830000000001
 10
-216.131
 20
-35.06830000000001
 10
-216.131
 20
-22.26769999999999
 10
-216.932
 20
-22.26769999999999
 10
-216.932
 20
-21.66830000000001
 10
-230.932
 20
-21.66830000000001
  0
LWPOLYLINE
  5
5D
100
AcDbEntity
  8
0
  6
ByLayer
 62
  256
370
   -1
100
AcDbPolyline
 90
   12
 70
    1
 43
0
 10
-64.5322
 20
-21.66830000000001
 10
-78.53149999999998
 20
-21.66830000000001
 10
-78.53149999999998
 20
-22.26769999999999
 10
-79.3323
 20
-22.26769999999999
 10
-79.3323
 20
-35.06830000000001
 10
-78.53149999999998
 20
-35.06830000000001
 10
-78.53149999999998
 20
-35.66759999999999
 10
-64.5322
 20
-35.66759999999999
 10
-64.5322
 20
-35.06830000000001
 10
-63.73140000000001
 20
-35.06830000000001
 10
-63.73140000000001
 20
-22.26769999999999
 10
-64.5322
 20
-22.26769999999999
  0
LWPOLYLINE
  5
5E
100
AcDbEntity
  8
0
  6
ByLayer
 62
  256
370
   -1
100
AcDbPolyline
 90
   12
 70
    1
 43
0
 10
-236.495
 20
-60.36770000000001
 10
-236.495
 20
-73.1682
 10
-235.694
 20
-73.1682
 10
-235.694
 20
-73.76760000000002
 10
-221.695
 20
-73.76760000000002
 10
-221.695
 20
-73.1682
 10
-220.895
 20
-73.1682
 10
-220.895
 20
-60.36770000000001
 10
-221.695
 20
-60.36770000000001
 10
-221.695
 20
-59.7683
 10
-235.694
 20
-59.7683
 10
-235.694
 20
-60.36770000000001
  0
LWPOLYLINE
  5
5F
100
AcDbEntity
  8
0
  6
ByLayer
 62
  256
370
   -1
100
AcDbPolyline
 90
   12
 70
    1
 43
0
 10
-78.81970000000003
 20
-79.41770000000002
 10
-78.81970000000003
 20
-78.81829999999999
 10
-92.819
 20
-78.81829999999999
 10
-92.819
 20
-79.41770000000002
 10
-93.61839999999999
 20
-79.41770000000002
 10
-93.61839999999999
 20
-92.21819999999997
 10
-92.819
 20
-92.21819999999997
 10
-92.819
 20
-92.81760000000003
 10
-78.81970000000003
 20
-92.81760000000003
 10
-78.81970000000003
 20
-92.21819999999997
 10
-78.02030000000001
 20
-92.21819999999997
 10
-78.02030000000001
 20
-79.41770000000002
  0
LWPOLYLINE
  5
60
100
AcDbEntity
  8
0
  6
ByLayer
 62
  256
370
   -1
100
AcDbPolyline
 90
   12
 70
    1
 43
0
 10
-226.4570000000001
 20
-54.11820000000002
 10
-225.656
 20
-54.11820000000002
 10
-225.656
 20
-41.3177
 10
-226.4570000000001
 20
-41.3177
 10
-226.4570000000001
 20
-40.71830000000001
 10
-240.4570000000001
 20
-40.71830000000001
 10
-240.4570000000001
 20
-41.3177
 10
-241.257
 20
-41.3177
 10
-241.257
 20
-54.11820000000002
 10
-240.4570000000001
 20
-54.11820000000002
 10
-240.4570000000001
 20
-54.7176
 10
-226.4570000000001
 20
-54.7176
  0
CIRCLE
  5
61
100
AcDbEntity
  8
0
  6
ByLayer
 62
  256
370
   -1
100
AcDbCircle
 10
5.204915363304088
 20
-47.71689507119571
 40
1.149999999999984
  0
CIRCLE
  5
62
100
AcDbEntity
  8
0
  6
ByLayer
 62
  256
370
   -1
100
AcDbCircle
 10
-291.1449999633041
 20
-47.71689507119568
 40
1.149999999999984
  0
LWPOLYLINE
  5
63
100
AcDbEntity
  8
0
  6
ByLayer
 62
  256
370
   -1
100
AcDbPolyline
 90
   12
 70
    1
 43
0
 10
-23.7629
 20
-54.7176
 10
-5.000910000000003
 20
-54.7176
 10
-5.000910000000002
 20
-54.11820000000002
 10
-4.200280000000002
 20
-54.11820000000002
 10
-4.200280000000002
 20
-41.3177
 10
-5.000910000000002
 20
-41.3177
 10
-5.000910000000003
 20
-40.71830000000001
 10
-23.7629
 20
-40.71830000000001
 10
-23.7629
 20
-41.3177
 10
-24.5622
 20
-41.3177
 10
-24.5622
 20
-54.11820000000002
 10
-23.7629
 20
-54.11820000000002
  0
LWPOLYLINE
  5
64
100
AcDbEntity
  8
0
  6
ByLayer
 62
  256
370
   -1
100
AcDbPolyline
 90
   12
 70
    1
 43
0
 10
-226.169
 20
-78.81829999999999
 10
-226.169
 20
-79.41770000000002
 10
-226.97
 20
-79.41770000000002
 10
-226.97
 20
-92.21819999999997
 10
-226.169
 20
-92.21819999999997
 10
-226.169
 20
-92.81760000000003
 10
-212.17
 20
-92.81760000000003
 10
-212.17
 20
-92.21819999999997
 10
-211.37
 20
-92.21819999999997
 10
-211.37
 20
-79.41770000000002
 10
-212.17
 20
-79.41770000000002
 10
-212.17
 20
-78.81829999999999
  0
LWPOLYLINE
  5
65
100
AcDbEntity
  8
0
  6
ByLayer
 62
  256
370
   -1
100
AcDbPolyline
 90
   12
 70
    1
 43
0
 10
-30.39540000000001
 20
-16.0183
 10
-30.39540000000001
 20
-3.217719999999993
 10
-31.1947
 20
-3.217719999999993
 10
-31.1947
 20
-2.618270000000003
 10
-45.19399999999999
 20
-2.618270000000003
 10
-45.19399999999999
 20
-3.217719999999993
 10
-45.9948
 20
-3.217719999999993
 10
-45.9948
 20
-16.0183
 10
-45.19399999999999
 20
-16.0183
 10
-45.19399999999999
 20
-16.61780000000001
 10
-31.1947
 20
-16.61780000000001
 10
-31.1947
 20
-16.0183
  0
LWPOLYLINE
  5
66
100
AcDbEntity
  8
0
  6
ByLayer
 62
  256
370
   -1
100
AcDbPolyline
 90
   12
 70
    1
 43
0
 10
-204.1930924103761
 20
-1.618000000000048
 10
-204.1930924103761
 20
-9.117119999999996
 10
-204.193
 20
-9.117119999999998
 10
-204.193
 20
-11.9173
 10
-204.1930924103761
 20
-11.9173
 10
-204.1930924103761
 20
-17.61801220703004
 42
0.4142135623730534
 10
-203.1930924103761
 20
-18.61801220703006
 10
-197.0743272107734
 20
-18.61801220703004
 42
0.414213523218337
 10
-196.0743273444561
 20
-17.61801220703004
 10
-196.0743273444562
 20
-1.618000000000049
 42
0.4142135623730971
 10
-197.074327344456
 20
-0.6180000000001648
 10
-203.1930924103761
 20
-0.6180000000000516
 42
0.4142135623730765
  0
LWPOLYLINE
  5
67
100
AcDbEntity
  8
0
  6
ByLayer
 62
  256
370
   -1
100
AcDbPolyline
 90
   12
 70
    1
 43
0
 10
-231.22
 20
-78.81829999999999
 10
-245.219
 20
-78.81829999999999
 10
-245.219
 20
-79.41770000000002
 10
-246.02
 20
-79.41770000000002
 10
-246.02
 20
-92.21819999999997
 10
-245.219
 20
-92.21819999999997
 10
-245.219
 20
-92.81760000000003
 10
-231.22
 20
-92.81760000000003
 10
-231.22
 20
-92.21819999999997
 10
-230.42
 20
-92.21819999999997
 10
-230.42
 20
-79.41770000000002
 10
-231.22
 20
-79.41770000000002
  0
LWPOLYLINE
  5
68
100
AcDbEntity
  8
0
  6
ByLayer
 62
  256
370
   -1
100
AcDbPolyline
 90
   12
 70
    1
 43
0
 10
-125.644
 20
-73.1682
 10
-125.644
 20
-60.36770000000001
 10
-126.445
 20
-60.36770000000001
 10
-126.445
 20
-59.7683
 10
-140.444
 20
-59.7683
 10
-140.444
 20
-60.36770000000001
 10
-141.2450000000001
 20
-60.36770000000001
 10
-141.2450000000001
 20
-73.1682
 10
-140.444
 20
-73.1682
 10
-140.444
 20
-73.76760000000002
 10
-126.445
 20
-73.76760000000002
 10
-126.445
 20
-73.1682
  0
LWPOLYLINE
  5
69
100
AcDbEntity
  8
0
  6
ByLayer
 62
  256
370
   -1
100
AcDbPolyline
 90
   12
 70
    1
 43
0
 10
-45.9948
 20
-73.1682
 10
-45.19399999999999
 20
-73.1682
 10
-45.19399999999999
 20
-73.76760000000002
 10
-31.1947
 20
-73.76760000000002
 10
-31.1947
 20
-73.1682
 10
-30.39540000000001
 20
-73.1682
 10
-30.39540000000001
 20
-60.36770000000001
 10
-31.1947
 20
-60.36770000000001
 10
-31.1947
 20
-59.7683
 10
-45.19399999999999
 20
-59.7683
 10
-45.19399999999999
 20
-60.36770000000001
 10
-45.9948
 20
-60.36770000000001
  0
LWPOLYLINE
  5
6A
100
AcDbEntity
  8
0
  6
ByLayer
 62
  256
370
   -1
100
AcDbPolyline
 90
   12
 70
    1
 43
0
 10
-107.395
 20
-73.1682
 10
-106.595
 20
-73.1682
 10
-106.595
 20
-60.36770000000001
 10
-107.395
 20
-60.36770000000001
 10
-107.395
 20
-59.7683
 10
-121.394
 20
-59.7683
 10
-121.394
 20
-60.36770000000001
 10
-122.195
 20
-60.36770000000001
 10
-122.195
 20
-73.1682
 10
-121.394
 20
-73.1682
 10
-121.394
 20
-73.76760000000002
 10
-107.395
 20
-73.76760000000002
  0
CIRCLE
  5
6B
100
AcDbEntity
  8
0
  6
ByLayer
 62
  256
370
   -1
100
AcDbCircle
 10
-142.9700423
 20
-100.6424
 40
1.150000000000002
  0
LWPOLYLINE
  5
6C
100
AcDbEntity
  8
0
  6
ByLayer
 62
  256
370
   -1
100
AcDbPolyline
 90
   12
 70
    1
 43
0
 10
-74.5698
 20
-79.41770000000002
 10
-74.5698
 20
-92.21819999999997
 10
-73.76899999999998
 20
-92.21819999999997
 10
-73.76899999999998
 20
-92.81760000000003
 10
-59.76970000000001
 20
-92.81760000000003
 10
-59.76970000000001
 20
-92.21819999999997
 10
-58.97030000000001
 20
-92.21819999999997
 10
-58.97030000000001
 20
-79.41770000000002
 10
-59.76970000000001
 20
-79.41770000000002
 10
-59.76970000000001
 20
-78.81829999999999
 10
-73.76899999999998
 20
-78.81829999999999
 10
-73.76899999999998
 20
-79.41770000000002
  0
CIRCLE
  5
6D
100
AcDbEntity
  8
0
  6
ByLayer
 62
  256
370
   -1
100
AcDbCircle
 10
-142.9700423
 20
5.207671400000007
 40
1.150000000000002
  0
LWPOLYLINE
  5
6E
100
AcDbEntity
  8
0
  6
ByLayer
 62
  256
370
   -1
100
AcDbPolyline
 90
   12
 70
    1
 43
0
 10
-111.869
 20
-78.81829999999999
 10
-111.869
 20
-79.41770000000002
 10
-112.668
 20
-79.41770000000002
 10
-112.668
 20
-92.21819999999997
 10
-111.869
 20
-92.21819999999997
 10
-111.869
 20
-92.81760000000003
 10
-97.86830000000002
 20
-92.81760000000003
 10
-97.86830000000002
 20
-92.21819999999997
 10
-97.07030000000002
 20
-92.21819999999997
 10
-97.07030000000002
 20
-79.41770000000002
 10
-97.86830000000002
 20
-79.41770000000002
 10
-97.86830000000002
 20
-78.81829999999999
  0
LWPOLYLINE
  5
6F
100
AcDbEntity
  8
0
  6
ByLayer
 62
  256
370
   -1
100
AcDbPolyline
 90
   12
 70
    1
 43
0
 10
-155.532
 20
-22.26769999999999
 10
-155.532
 20
-35.06830000000001
 10
-154.732
 20
-35.06830000000001
 10
-154.732
 20
-35.66759999999999
 10
-140.732
 20
-35.66759999999999
 10
-140.732
 20
-35.06830000000001
 10
-139.931
 20
-35.06830000000001
 10
-139.931
 20
-22.26769999999999
 10
-140.732
 20
-22.26769999999999
 10
-140.732
 20
-21.66830000000001
 10
-154.732
 20
-21.66830000000001
 10
-154.732
 20
-22.26769999999999
  0
LWPOLYLINE
  5
70
100
AcDbEntity
  8
0
  6
ByLayer
 62
  256
370
   -1
100
AcDbPolyline
 90
   12
 70
    1
 43
0
 10
-35.9572
 20
-54.7176
 10
-35.9572
 20
-54.11820000000002
 10
-35.15650000000001
 20
-54.11820000000002
 10
-35.15650000000001
 20
-41.3177
 10
-35.9572
 20
-41.3177
 10
-35.9572
 20
-40.71830000000001
 10
-49.95649999999999
 20
-40.71830000000001
 10
-49.95649999999999
 20
-41.3177
 10
-50.7573
 20
-41.3177
 10
-50.7573
 20
-54.11820000000002
 10
-49.95649999999999
 20
-54.11820000000002
 10
-49.95649999999999
 20
-54.7176
  0
CIRCLE
  5
71
100
AcDbEntity
  8
0
  6
ByLayer
 62
  256
370
   -1
100
AcDbCircle
 10
-242.9700423
 20
-100.6424
 40
1.149999999999984
  0
LWPOLYLINE
  5
72
100
AcDbEntity
  8
0
  6
ByLayer
 62
  256
370
   -1
100
AcDbPolyline
 90
   12
 70
    1
 43
0
 10
-88.0565
 20
-41.3177
 10
-88.85730000000002
 20
-41.3177
 10
-88.85730000000002
 20
-54.11820000000002
 10
-88.0565
 20
-54.11820000000002
 10
-88.0565
 20
-54.7176
 10
-74.05720000000002
 20
-54.7176
 10
-74.05720000000002
 20
-54.11820000000002
 10
-73.2564
 20
-54.11820000000002
 10
-73.2564
 20
-41.3177
 10
-74.05720000000002
 20
-41.3177
 10
-74.05720000000002
 20
-40.71830000000001
 10
-88.0565
 20
-40.71830000000001
  0
LWPOLYLINE
  5
73
100
AcDbEntity
  8
0
  6
ByLayer
 62
  256
370
   -1
100
AcDbPolyline
 90
   12
 70
    1
 43
0
 10
-155.02
 20
-78.81829999999999
 10
-169.0190000000001
 20
-78.81829999999999
 10
-169.0190000000001
 20
-79.41770000000002
 10
-169.82
 20
-79.41770000000002
 10
-169.82
 20
-92.21819999999997
 10
-169.0190000000001
 20
-92.21819999999997
 10
-169.0190000000001
 20
-92.81760000000003
 10
-155.02
 20
-92.81760000000003
 10
-155.02
 20
-92.21819999999997
 10
-154.22
 20
-92.21819999999997
 10
-154.22
 20
-79.41770000000002
 10
-155.02
 20
-79.41770000000002
  0
LWPOLYLINE
  5
74
100
AcDbEntity
  8
0
  6
ByLayer
 62
  256
370
   -1
100
AcDbPolyline
 90
   12
 70
    1
 43
0
 10
-160.295
 20
-60.36770000000001
 10
-160.295
 20
-73.1682
 10
-159.494
 20
-73.1682
 10
-159.494
 20
-73.76760000000002
 10
-145.495
 20
-73.76760000000002
 10
-145.495
 20
-73.1682
 10
-144.6950000000001
 20
-73.1682
 10
-144.6950000000001
 20
-60.36770000000001
 10
-145.495
 20
-60.36770000000001
 10
-145.495
 20
-59.7683
 10
-159.494
 20
-59.7683
 10
-159.494
 20
-60.36770000000001
  0
LWPOLYLINE
  5
75
100
AcDbEntity
  8
0
  6
ByLayer
 62
  256
370
   -1
100
AcDbPolyline
 90
   12
 70
    1
 43
0
 10
-164.2570000000001
 20
-41.3177
 10
-165.057
 20
-41.3177
 10
-165.057
 20
-54.11820000000002
 10
-164.2570000000001
 20
-54.11820000000002
 10
-164.2570000000001
 20
-54.7176
 10
-150.2569999999999
 20
-54.7176
 10
-150.2569999999999
 20
-54.11820000000002
 10
-149.4560000000001
 20
-54.11820000000002
 10
-149.4560000000001
 20
-41.3177
 10
-150.2569999999999
 20
-41.3177
 10
-150.2569999999999
 20
-40.71830000000001
 10
-164.2570000000001
 20
-40.71830000000001
  0
LWPOLYLINE
  5
76
100
AcDbEntity
  8
0
  6
ByLayer
 62
  256
370
   -1
100
AcDbPolyline
 90
   12
 70
    1
 43
0
 10
-69.29470000000001
 20
-59.7683
 10
-83.29399999999998
 20
-59.7683
 10
-83.29399999999998
 20
-60.36770000000001
 10
-84.09480000000001
 20
-60.36770000000001
 10
-84.09480000000001
 20
-73.1682
 10
-83.29399999999998
 20
-73.1682
 10
-83.29399999999998
 20
-73.76760000000002
 10
-69.29470000000001
 20
-73.76760000000002
 10
-69.29470000000001
 20
-73.1682
 10
-68.4953
 20
-73.1682
 10
-68.4953
 20
-60.36770000000001
 10
-69.29470000000001
 20
-60.36770000000001
  0
LWPOLYLINE
  5
77
100
AcDbEntity
  8
0
  6
ByLayer
 62
  256
370
   -1
100
AcDbPolyline
 90
   12
 70
    1
 43
0
 10
-64.244
 20
-73.1682
 10
-64.244
 20
-73.76760000000002
 10
-50.24470000000001
 20
-73.76760000000002
 10
-50.24470000000001
 20
-73.1682
 10
-49.4453
 20
-73.1682
 10
-49.4453
 20
-60.36770000000001
 10
-50.24470000000001
 20
-60.36770000000001
 10
-50.24470000000001
 20
-59.7683
 10
-64.244
 20
-59.7683
 10
-64.244
 20
-60.36770000000001
 10
-65.0448
 20
-60.36770000000001
 10
-65.0448
 20
-73.1682
  0
LWPOLYLINE
  5
78
100
AcDbEntity
  8
0
  6
ByLayer
 62
  256
370
   -1
100
AcDbPolyline
 90
   12
 70
    1
 43
0
 10
-240.745
 20
-73.1682
 10
-239.945
 20
-73.1682
 10
-239.945
 20
-60.36770000000001
 10
-240.745
 20
-60.36770000000001
 10
-240.745
 20
-59.7683
 10
-254.744
 20
-59.7683
 10
-254.744
 20
-60.36770000000001
 10
-255.545
 20
-60.36770000000001
 10
-255.545
 20
-73.1682
 10
-254.744
 20
-73.1682
 10
-254.744
 20
-73.76760000000002
 10
-240.745
 20
-73.76760000000002
  0
LWPOLYLINE
  5
79
100
AcDbEntity
  8
0
  6
ByLayer
 62
  256
370
   -1
100
AcDbPolyline
 90
   12
 70
    1
 43
0
 10
-135.97
 20
-2.618270000000003
 10
-149.9690000000001
 20
-2.618270000000003
 10
-149.9690000000001
 20
-3.217719999999993
 10
-150.77
 20
-3.217719999999993
 10
-150.77
 20
-16.0183
 10
-149.9690000000001
 20
-16.0183
 10
-149.9690000000001
 20
-16.61780000000001
 10
-135.97
 20
-16.61780000000001
 10
-135.97
 20
-16.0183
 10
-135.17
 20
-16.0183
 10
-135.17
 20
-3.217719999999993
 10
-135.97
 20
-3.217719999999993
  0
LWPOLYLINE
  5
7A
100
AcDbEntity
  8
0
  6
ByLayer
 62
  256
370
   -1
100
AcDbPolyline
 90
   12
 70
    1
 43
0
 10
-197.5940000000001
 20
-73.76760000000002
 10
-183.595
 20
-73.76760000000002
 10
-183.595
 20
-73.1682
 10
-182.795
 20
-73.1682
 10
-182.795
 20
-60.36770000000001
 10
-183.595
 20
-60.36770000000001
 10
-183.595
 20
-59.7683
 10
-197.5940000000001
 20
-59.7683
 10
-197.5940000000001
 20
-60.36770000000001
 10
-198.395
 20
-60.36770000000001
 10
-198.395
 20
-73.1682
 10
-197.5940000000001
 20
-73.1682
  0
LWPOLYLINE
  5
7B
100
AcDbEntity
  8
0
  6
ByLayer
 62
  256
370
   -1
100
AcDbPolyline
 90
   12
 70
    1
 43
0
 10
-116.119
 20
-92.21819999999997
 10
-116.119
 20
-79.41770000000002
 10
-116.918
 20
-79.41770000000002
 10
-116.918
 20
-78.81829999999999
 10
-130.919
 20
-78.81829999999999
 10
-130.919
 20
-79.41770000000002
 10
-131.72
 20
-79.41770000000002
 10
-131.72
 20
-92.21819999999997
 10
-130.919
 20
-92.21819999999997
 10
-130.919
 20
-92.81760000000003
 10
-116.918
 20
-92.81760000000003
 10
-116.918
 20
-92.21819999999997
  0
LWPOLYLINE
  5
7C
100
AcDbEntity
  8
0
  6
ByLayer
 62
  256
370
   -1
100
AcDbPolyline
 90
   12
 70
    1
 43
0
 10
-55.5198
 20
-92.21819999999997
 10
-54.71900000000001
 20
-92.21819999999997
 10
-54.71900000000001
 20
-92.81760000000003
 10
-40.7197
 20
-92.81760000000003
 10
-40.7197
 20
-92.21819999999997
 10
-39.9203
 20
-92.21819999999997
 10
-39.9203
 20
-79.41770000000002
 10
-40.7197
 20
-79.41770000000002
 10
-40.7197
 20
-78.81829999999999
 10
-54.71900000000001
 20
-78.81829999999999
 10
-54.71900000000001
 20
-79.41770000000002
 10
-55.5198
 20
-79.41770000000002
  0
LWPOLYLINE
  5
7D
100
AcDbEntity
  8
0
  6
ByLayer
 62
  256
370
   -1
100
AcDbPolyline
 90
   12
 70
    1
 43
0
 10
-240.745
 20
-2.618270000000003
 10
-254.744
 20
-2.618270000000003
 10
-254.744
 20
-3.217719999999993
 10
-255.545
 20
-3.217719999999993
 10
-255.545
 20
-16.0183
 10
-254.744
 20
-16.0183
 10
-254.744
 20
-16.61780000000001
 10
-240.745
 20
-16.61780000000001
 10
-240.745
 20
-16.0183
 10
-239.945
 20
-16.0183
 10
-239.945
 20
-3.217719999999993
 10
-240.745
 20
-3.217719999999993
  0
LWPOLYLINE
  5
7E
100
AcDbEntity
  8
0
  6
ByLayer
 62
  256
370
   -1
100
AcDbPolyline
 90
   12
 70
    1
 43
0
 10
-216.644
 20
-73.76760000000002
 10
-202.645
 20
-73.76760000000002
 10
-202.645
 20
-73.1682
 10
-201.845
 20
-73.1682
 10
-201.845
 20
-60.36770000000001
 10
-202.645
 20
-60.36770000000001
 10
-202.645
 20
-59.7683
 10
-216.644
 20
-59.7683
 10
-216.644
 20
-60.36770000000001
 10
-217.445
 20
-60.36770000000001
 10
-217.445
 20
-73.1682
 10
-216.644
 20
-73.1682
  0
LWPOLYLINE
  5
7F
100
AcDbEntity
  8
0
  6
ByLayer
 62
  256
370
   -1
100
AcDbPolyline
 90
   12
 70
    1
 43
0
 10
-197.882
 20
-22.26769999999999
 10
-197.882
 20
-21.66830000000001
 10
-211.882
 20
-21.66830000000001
 10
-211.882
 20
-22.26769999999999
 10
-212.6820000000001
 20
-22.26769999999999
 10
-212.6820000000001
 20
-35.06830000000001
 10
-211.882
 20
-35.06830000000001
 10
-211.882
 20
-35.66759999999999
 10
-197.882
 20
-35.66759999999999
 10
-197.882
 20
-35.06830000000001
 10
-197.081
 20
-35.06830000000001
 10
-197.081
 20
-22.26769999999999
  0
LWPOLYLINE
  5
80
100
AcDbEntity
  8
0
  6
ByLayer
 62
  256
370
   -1
100
AcDbPolyline
 90
   12
 70
    1
 43
0
 10
-207.1190000000001
 20
-79.41770000000002
 10
-207.92
 20
-79.41770000000002
 10
-207.92
 20
-92.21819999999997
 10
-207.1190000000001
 20
-92.21819999999997
 10
-207.1190000000001
 20
-92.81760000000003
 10
-193.1200000000001
 20
-92.81760000000003
 10
-193.1200000000001
 20
-92.21819999999997
 10
-192.32
 20
-92.21819999999997
 10
-192.32
 20
-79.41770000000002
 10
-193.1200000000001
 20
-79.41770000000002
 10
-193.1200000000001
 20
-78.81829999999999
 10
-207.1190000000001
 20
-78.81829999999999
  0
LWPOLYLINE
  5
81
100
AcDbEntity
  8
0
  6
ByLayer
 62
  256
370
   -1
100
AcDbPolyline
 90
   12
 70
    1
 43
0
 10
-69.8073
 20
-41.3177
 10
-69.8073
 20
-54.11820000000002
 10
-69.0065
 20
-54.11820000000002
 10
-69.0065
 20
-54.7176
 10
-55.0072
 20
-54.7176
 10
-55.0072
 20
-54.11820000000002
 10
-54.2064
 20
-54.11820000000002
 10
-54.2064
 20
-41.3177
 10
-55.0072
 20
-41.3177
 10
-55.0072
 20
-40.71830000000001
 10
-69.0065
 20
-40.71830000000001
 10
-69.0065
 20
-41.3177
  0
LWPOLYLINE
  5
82
100
AcDbEntity
  8
0
  6
ByLayer
 62
  256
370
   -1
100
AcDbPolyline
 90
   12
 70
    1
 43
0
 10
-87.54530000000003
 20
-73.1682
 10
-87.54530000000003
 20
-60.36770000000001
 10
-88.34470000000002
 20
-60.36770000000001
 10
-88.34470000000002
 20
-59.7683
 10
-102.344
 20
-59.7683
 10
-102.344
 20
-60.36770000000001
 10
-103.145
 20
-60.36770000000001
 10
-103.145
 20
-73.1682
 10
-102.344
 20
-73.1682
 10
-102.344
 20
-73.76760000000002
 10
-88.34470000000002
 20
-73.76760000000002
 10
-88.34470000000002
 20
-73.1682
  0
LWPOLYLINE
  5
83
100
AcDbEntity
  8
0
  6
ByLayer
 62
  256
370
   -1
100
AcDbPolyline
 90
   12
 70
    1
 43
0
 10
-112.157
 20
-54.11820000000002
 10
-111.356
 20
-54.11820000000002
 10
-111.356
 20
-41.3177
 10
-112.157
 20
-41.3177
 10
-112.157
 20
-40.71830000000001
 10
-126.157
 20
-40.71830000000001
 10
-126.157
 20
-41.3177
 10
-126.957
 20
-41.3177
 10
-126.957
 20
-54.11820000000002
 10
-126.157
 20
-54.11820000000002
 10
-126.157
 20
-54.7176
 10
-112.157
 20
-54.7176
  0
LWPOLYLINE
  5
84
100
AcDbEntity
  8
0
  6
ByLayer
 62
  256
370
   -1
100
AcDbPolyline
 90
   12
 70
    1
 43
0
 10
-35.66900000000001
 20
-92.21819999999997
 10
-35.66900000000001
 20
-92.81760000000003
 10
-21.6697
 20
-92.81760000000003
 10
-21.6697
 20
-92.21819999999997
 10
-20.8704
 20
-92.21819999999997
 10
-20.8704
 20
-79.41770000000002
 10
-21.6697
 20
-79.41770000000002
 10
-21.6697
 20
-78.81829999999999
 10
-35.66900000000001
 20
-78.81829999999999
 10
-35.66900000000001
 20
-79.41770000000002
 10
-36.4698
 20
-79.41770000000002
 10
-36.4698
 20
-92.21819999999997
  0
LWPOLYLINE
  5
85
100
AcDbEntity
  8
0
  6
ByLayer
 62
  256
370
   -1
100
AcDbPolyline
 90
   12
 70
    1
 43
0
 10
-159.782
 20
-35.06830000000001
 10
-158.981
 20
-35.06830000000001
 10
-158.981
 20
-22.26769999999999
 10
-159.782
 20
-22.26769999999999
 10
-159.782
 20
-21.66830000000001
 10
-173.7820000000001
 20
-21.66830000000001
 10
-173.7820000000001
 20
-22.26769999999999
 10
-174.5820000000001
 20
-22.26769999999999
 10
-174.5820000000001
 20
-35.06830000000001
 10
-173.7820000000001
 20
-35.06830000000001
 10
-173.7820000000001
 20
-35.66759999999999
 10
-159.782
 20
-35.66759999999999
  0
LWPOLYLINE
  5
86
100
AcDbEntity
  8
0
  6
ByLayer
 62
  256
370
   -1
100
AcDbPolyline
 90
   12
 70
    1
 43
0
 10
-16.61920000000001
 20
-79.41770000000002
 10
-17.4198
 20
-79.41770000000002
 10
-17.4198
 20
-92.21819999999997
 10
-16.61920000000001
 20
-92.21819999999997
 10
-16.61920000000001
 20
-92.81760000000003
 10
-2.61965
 20
-92.81760000000003
 10
-2.61965
 20
-92.21819999999997
 10
-1.820390000000001
 20
-92.21819999999997
 10
-1.820390000000001
 20
-79.41770000000002
 10
-2.61965
 20
-79.41770000000002
 10
-2.61965
 20
-78.81829999999999
 10
-16.61920000000001
 20
-78.81829999999999
  0
LWPOLYLINE
  5
87
100
AcDbEntity
  8
0
  6
ByLayer
 62
  256
370
   -1
100
AcDbPolyline
 90
   12
 70
    1
 43
0
 10
-206.606
 20
-54.11820000000002
 10
-206.606
 20
-41.3177
 10
-207.407
 20
-41.3177
 10
-207.407
 20
-40.71830000000001
 10
-221.4070000000001
 20
-40.71830000000001
 10
-221.4070000000001
 20
-41.3177
 10
-222.207
 20
-41.3177
 10
-222.207
 20
-54.11820000000002
 10
-221.4070000000001
 20
-54.11820000000002
 10
-221.4070000000001
 20
-54.7176
 10
-207.407
 20
-54.7176
 10
-207.407
 20
-54.11820000000002
  0
CIRCLE
  5
88
100
AcDbEntity
  8
0
  6
ByLayer
 62
  256
370
   -1
100
AcDbCircle
 10
-42.97004230000005
 20
-100.6424
 40
1.150000000000002
  0
CIRCLE
  5
89
100
AcDbEntity
  8
0
  6
ByLayer
 62
  256
370
   -1
100
AcDbCircle
 10
-42.97004230000002
 20
5.207671400000007
 40
1.150000000000002
  0
LWPOLYLINE
  5
8A
100
AcDbEntity
  8
0
  6
ByLayer
 62
  256
370
   -1
100
AcDbPolyline
 90
   12
 70
    1
 43
0
 10
-202.3570000000001
 20
-54.7176
 10
-188.357
 20
-54.7176
 10
-188.357
 20
-54.11820000000002
 10
-187.556
 20
-54.11820000000002
 10
-187.556
 20
-41.3177
 10
-188.357
 20
-41.3177
 10
-188.357
 20
-40.71830000000001
 10
-202.3570000000001
 20
-40.71830000000001
 10
-202.3570000000001
 20
-41.3177
 10
-203.1570000000001
 20
-41.3177
 10
-203.1570000000001
 20
-54.11820000000002
 10
-202.3570000000001
 20
-54.11820000000002
  0
LWPOLYLINE
  5
8B
100
AcDbEntity
  8
0
  6
ByLayer
 62
  256
370
   -1
100
AcDbPolyline
 90
   12
 70
    1
 43
0
 10
-188.0690000000001
 20
-78.81829999999999
 10
-188.0690000000001
 20
-79.41770000000002
 10
-188.87
 20
-79.41770000000002
 10
-188.87
 20
-92.21819999999997
 10
-188.0690000000001
 20
-92.21819999999997
 10
-188.0690000000001
 20
-92.81760000000003
 10
-174.0700000000001
 20
-92.81760000000003
 10
-174.0700000000001
 20
-92.21819999999997
 10
-173.27
 20
-92.21819999999997
 10
-173.27
 20
-79.41770000000002
 10
-174.0700000000001
 20
-79.41770000000002
 10
-174.0700000000001
 20
-78.81829999999999
  0
LWPOLYLINE
  5
8C
100
AcDbEntity
  8
0
  6
ByLayer
 62
  256
370
   -1
100
AcDbPolyline
 90
   12
 70
    1
 43
0
 10
-130.4060000000001
 20
-54.11820000000002
 10
-130.4060000000001
 20
-41.3177
 10
-131.207
 20
-41.3177
 10
-131.207
 20
-40.71830000000001
 10
-145.207
 20
-40.71830000000001
 10
-145.207
 20
-41.3177
 10
-146.007
 20
-41.3177
 10
-146.007
 20
-54.11820000000002
 10
-145.207
 20
-54.11820000000002
 10
-145.207
 20
-54.7176
 10
-131.207
 20
-54.7176
 10
-131.207
 20
-54.11820000000002
  0
LWPOLYLINE
  5
8D
100
AcDbEntity
  8
0
  6
ByLayer
 62
  256
370
   -1
100
AcDbPolyline
 90
   12
 70
    1
 43
0
 10
-135.682
 20
-35.66759999999999
 10
-121.682
 20
-35.66759999999999
 10
-121.682
 20
-35.06830000000001
 10
-120.881
 20
-35.06830000000001
 10
-120.881
 20
-22.26769999999999
 10
-121.682
 20
-22.26769999999999
 10
-121.682
 20
-21.66830000000001
 10
-135.682
 20
-21.66830000000001
 10
-135.682
 20
-22.26769999999999
 10
-136.482
 20
-22.26769999999999
 10
-136.482
 20
-35.06830000000001
 10
-135.682
 20
-35.06830000000001
  0
LWPOLYLINE
  5
8E
100
AcDbEntity
  8
0
  6
ByLayer
 62
  256
370
   -1
100
AcDbPolyline
 90
   43
 70
    1
 43
0
 10
-243.1258171386501
 20
-21.66830000000001
 42
-0.4142135623730576
 10
-244.1258171386501
 20
-20.66830000000012
 10
-244.1258171386501
 20
-20.66801831054017
 42
0.4142139633802627
 10
-245.1258171386501
 20
-19.66801774343034
 10
-250.4487090678501
 20
-19.66801472476566
 42
0.4142139633805619
 10
-251.4487090678502
 20
-20.66801415765575
 42
-0.4142135623730909
 10
-252.4487090678502
 20
-21.66801415765575
 10
-265.6507988281201
 20
-21.66800610351016
 10
-267.0911834535582
 20
-21.66800986956387
 42
-0.41354471164067
 10
-268.0888993164101
 20
-20.66801247820857
 42
0.4142154111899909
 10
-269.0888993164101
 20
-19.66801509282543
 10
-274.088899316412
 20
-19.66802816590933
 42
0.4142135623766975
 10
-275.0888967017951
 20
-20.66803078052615
 42
-0.4142135623730971
 10
-276.0888993164119
 20
-21.66803339514296
 10
-282.3195671386701
 20
-21.66804968595166
 42
0.005592726777832289
 10
-282.3419360454242
 20
-21.66830000000001
 10
-283.3190000000001
 20
-21.66830000000001
 10
-283.3190000000001
 20
-22.26769999999999
 10
-284.1200000000001
 20
-22.26769999999999
 10
-284.1200000000001
 20
-35.06830000000001
 10
-283.3190000000001
 20
-35.06830000000001
 10
-283.3190000000001
 20
-35.66759999999999
 10
-282.3484885168662
 20
-35.66759999999999
 42
0.007231478945206656
 10
-282.31956713867
 20
-35.66801831055023
 10
-276.0888993164116
 20
-35.66801831054023
 42
-0.4142135623734863
 10
-275.0888993164102
 20
-36.66801831054023
 42
0.4142064115422376
 10
-274.08889931641
 20
-37.66799389647989
 10
-269.08889931641
 20
-37.66799389648008
 42
0.4142135623731304
 10
-268.0888993164102
 20
-36.66799389647997
 42
-0.4142099870739735
 10
-267.08889931641
 20
-35.66800610351017
 10
-252.2128922363301
 20
-35.66800610351006
 42
-0.4142135624255687
 10
-251.2128922362558
 20
-36.66800610351017
 42
0.4142099870212172
 10
-250.2128922363301
 20
-37.6679938964802
 10
-245.2128922363301
 20
-37.6679938964802
 42
0.4142135623731137
 10
-244.2128922363299
 20
-36.66799389647997
 10
-244.2128922363299
 20
-36.66760000000002
 42
-0.4142135623731013
 10
-243.2128922363299
 20
-35.66759999999999
 10
-235.9820000000001
 20
-35.66759999999999
 10
-235.9820000000001
 20
-35.06830000000001
 10
-235.181
 20
-35.06830000000001
 10
-235.181
 20
-22.26769999999999
 10
-235.9820000000001
 20
-22.26769999999999
 10
-235.9820000000001
 20
-21.66830000000001
  0
LWPOLYLINE
  5
8F
100
AcDbEntity
  8
0
  6
ByLayer
 62
  256
370
   -1
100
AcDbPolyline
 90
   81
 70
    1
 43
0
 10
-27.6157761802536
 20
-95.96806008784753
 42
-0.0194069158789123
 10
-27.87231484624754
 20
-96.11501880181507
 42
0.03811416472661752
 10
-28.33438801756736
 20
-96.53688818897636
 42
-0.2069139324267557
 10
-30.89144424476948
 20
-97.64239999999997
 10
-31.26762455864665
 20
-97.64240000000001
 42
0.1989123673796585
 10
-34.17383342932335
 20
-98.84619112932327
 10
-37.85411913632083
 20
-102.5264768363207
 42
-0.1989123673796601
 10
-40.54819597264155
 20
-103.6424
 10
-45.39188862735857
 20
-103.6424
 42
-0.1989123673796506
 10
-48.08596546367932
 20
-102.5264768363207
 10
-51.85411913632077
 20
-98.75832316367926
 42
0.1989123673796661
 10
-54.54819597264152
 20
-97.64240000000001
 10
-131.3918886273586
 20
-97.64240000000001
 42
0.1989123673796591
 10
-134.0859654636793
 20
-98.75832316367925
 10
-137.8541191363208
 20
-102.5264768363207
 42
-0.1989123673796492
 10
-140.5481959726416
 20
-103.6424
 10
-145.3918886273586
 20
-103.6423999999999
 42
-0.1989123673796502
 10
-148.0859654636793
 20
-102.5264768363207
 10
-151.8541191363208
 20
-98.75832316367924
 42
0.1989123673796593
 10
-154.5481959726415
 20
-97.64240000000001
 10
-231.3918886273586
 20
-97.64239999999998
 42
0.1989123673796587
 10
-234.0859654636793
 20
-98.75832316367924
 10
-237.8541191363208
 20
-102.5264768363207
 42
-0.1989123673796531
 10
-240.5481959726415
 20
-103.6424
 10
-245.3918886273586
 20
-103.6423999999999
 42
-0.1989123673796515
 10
-248.0859654636793
 20
-102.5264768363207
 10
-251.8541191363208
 20
-98.75832316367925
 42
0.1989123673796668
 10
-254.5481959726415
 20
-97.64239999999999
 10
-284.3350000000001
 20
-97.64239999999999
 42
-0.4142135623730995
 10
-288.1450000000002
 20
-93.83239999999999
 10
-288.1450000000002
 20
-59.29551797264146
 42
0.1989123673796545
 10
-289.2609231636794
 20
-56.60144113632074
 10
-293.0290767629292
 20
-52.83328753707095
 42
-0.1989123673796736
 10
-294.1449999266084
 20
-50.13921070075013
 10
-294.1449999266083
 20
-45.29457944164126
 42
-0.1989123673796571
 10
-293.0290767629291
 20
-42.60050260532056
 10
-289.2609231636794
 20
-38.83234900607083
 42
0.1989123673796638
 10
-288.1450000000001
 20
-36.13827216975007
 10
-288.1450000000001
 20
-1.602328599999972
 42
-0.4142135623730949
 10
-284.3350000000001
 20
2.207671400000032
 10
-254.5481959726416
 20
2.20767140000002
 42
0.1989123673796508
 10
-251.8541191363208
 20
3.323594563679279
 10
-248.0859654636793
 20
7.091748236320763
 42
-0.1989123673796522
 10
-245.3918886273586
 20
8.207671399999994
 10
-240.5481959726416
 20
8.20767140000002
 42
-0.1989123673796563
 10
-237.8541191363209
 20
7.091748236320792
 10
-234.0859654636793
 20
3.323594563679245
 42
0.1989123673796571
 10
-231.3918886273586
 20
2.207671400000013
 10
-154.5481959726416
 20
2.207671400000013
 42
0.1989123673796557
 10
-151.8541191363208
 20
3.323594563679278
 10
-148.0859654636793
 20
7.091748236320759
 42
-0.1989123673796571
 10
-145.3918886273586
 20
8.207671399999994
 10
-140.5481959726416
 20
8.207671400000013
 42
-0.1989123673796601
 10
-137.8541191363209
 20
7.091748236320782
 10
-134.0859654636793
 20
3.323594563679246
 42
0.1989123673796587
 10
-131.3918886273586
 20
2.207671400000014
 10
-54.54819597264155
 20
2.207671400000006
 42
0.198912367379658
 10
-51.8541191363208
 20
3.323594563679249
 10
-48.08596546367931
 20
7.091748236320759
 42
-0.1989123673796564
 10
-45.39188862735857
 20
8.207671400000009
 10
-40.54819597264164
 20
8.207671400000022
 42
-0.1989123673796561
 10
-37.8541191363209
 20
7.091748236320793
 10
-34.08596546367931
 20
3.323594563679238
 42
0.1989123673796561
 10
-31.39188862735857
 20
2.207671399999996
 10
-1.605084600000027
 20
2.207671400000003
 42
-0.4142135623730961
 10
2.204915399999976
 20
-1.602328600000008
 10
2.20491539999997
 20
-36.13827216975012
 42
0.1989123673796596
 10
3.320838563679238
 20
-38.83234900607088
 10
7.088992162928951
 20
-42.60050260532056
 42
-0.1989123673796582
 10
8.204915326608219
 20
-45.29457944164128
 10
8.204915326608287
 20
-50.13921070075013
 42
-0.1989123673796596
 10
7.088992162929045
 20
-52.83328753707092
 10
3.320838563679216
 20
-56.60144113632078
 42
0.198912367379656
 10
2.204915399999966
 20
-59.29551797264152
 10
2.204915399999961
 20
-93.83240000000001
 42
-0.414213562373095
 10
-1.605084600000042
 20
-97.64240000000001
 10
-6.153812327606061
 20
-97.64240000000001
 42
-0.1492869561321482
 10
-8.282309449990798
 20
-96.99239999999998
 42
0.01222424025047484
 10
-8.439298361001626
 20
-96.89214611840038
 42
0.2284308093809794
 10
-11.65445000000003
 20
-95.34239999999997
 10
-25.43598826016104
 20
-95.34239999999997
 42
0.1406739602234677
  0
LWPOLYLINE
  5
90
100
AcDbEntity
  8
0
  6
ByLayer
 62
  256
370
   -1
100
AcDbPolyline
 90
   81
 70
    1
 43
0
 10
-37.85411913632083
 20
-102.5264768363207
 10
-34.17383342932335
 20
-98.84619112932327
 42
-0.1989123673796582
 10
-31.26762455864665
 20
-97.64240000000001
 10
-30.89144424476948
 20
-97.64239999999998
 42
0.206913932426762
 10
-28.33438801756737
 20
-96.53688818897633
 42
-0.03811416472661663
 10
-27.87231484624753
 20
-96.11501880181507
 42
0.01940691587888965
 10
-27.61577618025361
 20
-95.96806008784755
 42
-0.140673960223465
 10
-25.43598826016105
 20
-95.34239999999998
 10
-11.65445000000003
 20
-95.34239999999997
 42
-0.2284308093809804
 10
-8.439298361001629
 20
-96.89214611840035
 42
-0.01222424025052769
 10
-8.282309449990798
 20
-96.99239999999998
 42
0.1492869561321568
 10
-6.153812327606063
 20
-97.64240000000001
 10
-1.605084600000043
 20
-97.64240000000001
 42
0.414213562373095
 10
2.204915399999961
 20
-93.83240000000001
 10
2.204915399999966
 20
-59.29551797264152
 42
-0.1989123673796573
 10
3.320838563679214
 20
-56.60144113632078
 10
7.088992162929046
 20
-52.83328753707092
 42
0.1989123673796596
 10
8.20491532660829
 20
-50.13921070075013
 10
8.204915326608228
 20
-45.29457944164128
 42
0.1989123673796586
 10
7.088992162928959
 20
-42.60050260532056
 10
3.320838563679237
 20
-38.83234900607088
 42
-0.1989123673796596
 10
2.20491539999997
 20
-36.13827216975012
 10
2.204915399999975
 20
-1.6023286
 42
0.4142135623730955
 10
-1.605084600000026
 20
2.207671400000002
 10
-31.39188862735857
 20
2.207671400000004
 42
-0.1989123673796575
 10
-34.08596546367932
 20
3.323594563679242
 10
-37.8541191363209
 20
7.091748236320782
 42
0.1989123673796564
 10
-40.54819597264164
 20
8.207671400000017
 10
-45.39188862735857
 20
8.207671399999995
 42
0.1989123673796579
 10
-48.0859654636793
 20
7.091748236320754
 10
-51.8541191363208
 20
3.323594563679258
 42
-0.198912367379658
 10
-54.54819597264155
 20
2.207671400000005
 10
-131.3918886273586
 20
2.207671400000014
 42
-0.1989123673796564
 10
-134.0859654636793
 20
3.323594563679253
 10
-137.8541191363209
 20
7.091748236320781
 42
0.1989123673796614
 10
-140.5481959726416
 20
8.207671400000017
 10
-145.3918886273585
 20
8.207671399999999
 42
0.1989123673796575
 10
-148.0859654636793
 20
7.091748236320753
 10
-151.8541191363208
 20
3.32359456367927
 42
-0.1989123673796578
 10
-154.5481959726416
 20
2.207671400000013
 10
-231.3918886273586
 20
2.207671400000027
 42
-0.198912367379655
 10
-234.0859654636793
 20
3.323594563679246
 10
-237.8541191363209
 20
7.091748236320797
 42
0.1989123673796578
 10
-240.5481959726416
 20
8.207671400000013
 10
-245.3918886273586
 20
8.207671399999995
 42
0.1989123673796465
 10
-248.0859654636793
 20
7.091748236320756
 10
-251.8541191363208
 20
3.323594563679274
 42
-0.1989123673796578
 10
-254.5481959726416
 20
2.207671400000017
 10
-284.3350000000001
 20
2.207671400000024
 42
0.4142135623730989
 10
-288.1450000000002
 20
-1.602328599999971
 10
-288.1450000000001
 20
-36.13827216975006
 42
-0.198912367379661
 10
-289.2609231636794
 20
-38.83234900607084
 10
-293.0290767629291
 20
-42.60050260532052
 42
0.1989123673796599
 10
-294.1449999266084
 20
-45.29457944164126
 10
-294.1449999266084
 20
-50.13921070075014
 42
0.1989123673796739
 10
-293.0290767629292
 20
-52.83328753707089
 10
-289.2609231636794
 20
-56.60144113632074
 42
-0.198912367379655
 10
-288.1450000000002
 20
-59.29551797264146
 10
-288.1450000000001
 20
-93.83239999999999
 42
0.414213562373095
 10
-284.3350000000001
 20
-97.64239999999999
 10
-254.5481959726415
 20
-97.64239999999998
 42
-0.1989123673796587
 10
-251.8541191363208
 20
-98.75832316367924
 10
-248.0859654636793
 20
-102.5264768363207
 42
0.1989123673796555
 10
-245.3918886273585
 20
-103.6424
 10
-240.5481959726415
 20
-103.6424
 42
0.1989123673796552
 10
-237.8541191363208
 20
-102.5264768363207
 10
-234.0859654636793
 20
-98.75832316367924
 42
-0.1989123673796587
 10
-231.3918886273586
 20
-97.64239999999998
 10
-154.5481959726415
 20
-97.64239999999998
 42
-0.1989123673796573
 10
-151.8541191363208
 20
-98.75832316367922
 10
-148.0859654636793
 20
-102.5264768363207
 42
0.1989123673796483
 10
-145.3918886273586
 20
-103.6424
 10
-140.5481959726416
 20
-103.6424
 42
0.1989123673796566
 10
-137.8541191363208
 20
-102.5264768363207
 10
-134.0859654636793
 20
-98.75832316367925
 42
-0.1989123673796573
 10
-131.3918886273586
 20
-97.64240000000001
 10
-54.54819597264151
 20
-97.64240000000001
 42
-0.198912367379658
 10
-51.85411913632076
 20
-98.75832316367926
 10
-48.08596546367934
 20
-102.5264768363207
 42
0.1989123673796564
 10
-45.39188862735856
 20
-103.6424
 10
-40.54819597264155
 20
-103.6424
 42
0.1989123673796587
  0
LWPOLYLINE
  5
91
100
AcDbEntity
  8
0
  6
ByLayer
 62
  256
370
   -1
100
AcDbPolyline
 90
   54
 70
    1
 43
0
 10
-280.9711224840067
 20
-65.64929389648016
 10
-278.5570244140602
 20
-65.64929389648016
 10
-278.5570244140602
 20
-64.24260000000001
 10
-280.938
 20
-64.24260000000001
 10
-280.938
 20
-48.83292352022379
 42
-0.3889943335940126
 10
-281.8512443847603
 20
-47.83669389648017
 10
-281.8512443847603
 20
-42.83669389648017
 42
-0.4142135623731013
 10
-280.8512443847603
 20
-41.83669389648017
 10
-280.0499799122726
 20
-41.83669389648016
 10
-280.0499799122726
 20
-41.83665048550482
 10
-279.8512443847603
 20
-41.83669389648016
 10
-279.8514682996458
 20
-39.72101084127609
 42
-0.4142135623730845
 10
-278.8516690332294
 20
-38.72081014797872
 10
-273.8516691339441
 20
-38.71980658077567
 42
-0.4142135623731408
 10
-272.8514684406462
 20
-39.71960584719212
 42
0.3981733714295165
 10
-271.9063137165133
 20
-40.71789999999999
 10
-271.4130000000001
 20
-40.7179
 10
-271.413
 20
-40.71830000000001
 10
-256.9752678222603
 20
-40.71830000000001
 10
-256.9752678222603
 20
-40.71791220703007
 42
0.4142135623730742
 10
-255.9752678222604
 20
-39.71791220703015
 42
-0.4142135623731304
 10
-254.9752678222601
 20
-38.71791220703015
 10
-249.9752678222601
 20
-38.71791220703035
 42
-0.4142135623730929
 10
-248.9752678222601
 20
-39.71791220703017
 42
0.4142135623730992
 10
-247.9752678222602
 20
-40.7179122070301
 10
-247.9752678222602
 20
-40.71830000000001
 10
-245.5070000000001
 20
-40.71830000000001
 10
-245.5070000000001
 20
-41.3177
 10
-244.706
 20
-41.3177
 10
-244.706
 20
-54.11820000000002
 10
-245.5070000000001
 20
-54.11820000000002
 10
-245.5070000000001
 20
-54.7176
 10
-246.4791716669978
 20
-54.7176
 42
-0.006962673430356867
 10
-246.5070183105401
 20
-54.71798779296997
 10
-247.9752678222602
 20
-54.71798779296992
 42
0.4142135623730909
 10
-248.9752678222601
 20
-55.71798779296985
 42
-0.4142135623730825
 10
-249.9752678222601
 20
-56.71798779296961
 10
-254.9752678222601
 20
-56.71798779296986
 42
-0.4142135623731262
 10
-255.9752678222604
 20
-55.71798779296986
 42
0.4142135623730825
 10
-256.9752678222603
 20
-54.71798779296989
 10
-263.5570244140598
 20
-54.71798779296986
 42
0.4142135623730638
 10
-264.5570244140599
 20
-55.71798779296985
 10
-264.5570244140598
 20
-59.7683
 10
-264.5570000000001
 20
-59.7683
 10
-264.5570000000001
 20
-60.36770000000001
 10
-263.756
 20
-60.36770000000001
 10
-263.756
 20
-73.1682
 10
-264.5570000000001
 20
-73.1682
 10
-264.5570000000001
 20
-73.76760000000002
 10
-265.5285280616613
 20
-73.76760000000002
 42
-0.007125173202157241
 10
-265.5570244140598
 20
-73.76800610351006
 10
-280.9711224840067
 20
-73.76800610351015
 42
-0.4142135623731283
 10
-281.9711224840068
 20
-72.76800610351016
 10
-281.9711224840067
 20
-66.64929389648016
 42
-0.4142135623731075
  0
LWPOLYLINE
  5
92
100
AcDbEntity
  8
0
  6
ByLayer
 62
  256
370
   -1
100
AcDbPolyline
 90
   12
 70
    1
 43
0
 10
-149.9690000000001
 20
-2.618270000000003
 10
-135.97
 20
-2.618270000000003
 10
-135.97
 20
-3.217719999999993
 10
-135.17
 20
-3.217719999999993
 10
-135.17
 20
-16.0183
 10
-135.97
 20
-16.0183
 10
-135.97
 20
-16.61780000000001
 10
-149.9690000000001
 20
-16.61780000000001
 10
-149.9690000000001
 20
-16.0183
 10
-150.77
 20
-16.0183
 10
-150.77
 20
-3.217719999999994
 10
-149.9690000000001
 20
-3.217719999999994
  0
LWPOLYLINE
  5
93
100
AcDbEntity
  8
0
  6
ByLayer
 62
  256
370
   -1
100
AcDbPolyline
 90
   12
 70
    1
 43
0
 10
-204.1930924103761
 20
-9.117119999999998
 10
-204.1930924103761
 20
-1.618000000000048
 42
-0.4142135623730731
 10
-203.1930924103761
 20
-0.618000000000051
 10
-197.074327344456
 20
-0.6180000000001644
 42
-0.4142135623730966
 10
-196.0743273444562
 20
-1.618000000000049
 10
-196.0743273444561
 20
-17.61801220703004
 42
-0.414213523218337
 10
-197.0743272107734
 20
-18.61801220703004
 10
-203.1930924103761
 20
-18.61801220703006
 42
-0.4142135623730784
 10
-204.1930924103762
 20
-17.61801220703004
 10
-204.1930924103761
 20
-11.9173
 10
-204.193
 20
-11.91729999999999
 10
-204.193
 20
-9.117119999999996
  0
CIRCLE
  5
94
100
AcDbEntity
  8
0
  6
ByLayer
 62
  256
370
   -1
100
AcDbCircle
 10
-242.9700423
 20
5.207671400000007
 40
1.149999999999984
  0
LWPOLYLINE
  5
95
100
AcDbEntity
  8
0
  6
ByLayer
 62
  256
370
   -1
100
AcDbPolyline
 90
   12
 70
    1
 43
0
 10
-22.18230000000002
 20
-73.1682
 10
-22.18230000000002
 20
-60.36770000000001
 10
-21.38169999999999
 20
-60.36770000000001
 10
-21.38169999999999
 20
-59.7683
 10
-7.382160000000013
 20
-59.7683
 10
-7.382160000000013
 20
-60.36770000000001
 10
-6.581530000000022
 20
-60.36770000000001
 10
-6.581530000000022
 20
-73.1682
 10
-7.382160000000013
 20
-73.1682
 10
-7.382159999999978
 20
-73.76760000000002
 10
-21.38169999999999
 20
-73.76760000000002
 10
-21.38169999999999
 20
-73.1682
  0
LWPOLYLINE
  5
96
100
AcDbEntity
  8
0
  6
ByLayer
 62
  256
370
   -1
100
AcDbPolyline
 90
   12
 70
    1
 43
0
 10
-98.38230000000001
 20
-22.26769999999999
 10
-97.58150000000001
 20
-22.26769999999999
 10
-97.58150000000001
 20
-21.66830000000001
 10
-83.5822
 20
-21.66830000000001
 10
-83.5822
 20
-22.26769999999999
 10
-82.7814
 20
-22.26769999999999
 10
-82.7814
 20
-35.0683
 10
-83.5822
 20
-35.0683
 10
-83.5822
 20
-35.66759999999998
 10
-97.58150000000001
 20
-35.66759999999998
 10
-97.58150000000001
 20
-35.0683
 10
-98.38230000000001
 20
-35.0683
  0
LWPOLYLINE
  5
97
100
AcDbEntity
  8
0
  6
ByLayer
 62
  256
370
   -1
100
AcDbPolyline
 90
   12
 70
    1
 43
0
 10
-117.432
 20
-35.0683
 10
-117.432
 20
-22.26769999999999
 10
-116.632
 20
-22.26769999999999
 10
-116.632
 20
-21.66830000000001
 10
-102.632
 20
-21.66830000000001
 10
-102.632
 20
-22.26769999999999
 10
-101.831
 20
-22.26769999999999
 10
-101.831
 20
-35.0683
 10
-102.632
 20
-35.0683
 10
-102.632
 20
-35.66759999999998
 10
-116.632
 20
-35.66759999999998
 10
-116.632
 20
-35.0683
  0
LWPOLYLINE
  5
98
100
AcDbEntity
  8
0
  6
ByLayer
 62
  256
370
   -1
100
AcDbPolyline
 90
   40
 70
    1
 43
0
 10
-6.08777850341041
 20
-20.66800000000006
 10
-6.087778503410384
 20
-21.66830000000001
 10
-5.000910000000012
 20
-21.66830000000001
 10
-5.000910000000012
 20
-22.26769999999999
 10
-4.200279999999985
 20
-22.26769999999999
 10
-4.200279999999985
 20
-35.0683
 10
-5.000910000000012
 20
-35.0683
 10
-5.000910000000012
 20
-35.66759999999998
 10
-5.837641421983796
 20
-35.66759999999999
 42
-0.0409985667896148
 10
-6.000811035150413
 20
-35.68100196769957
 10
-6.087778503410384
 20
-35.68100196769956
 10
-6.087778503410397
 20
-36.68100196769956
 42
-0.4142135623730953
 10
-7.087778503410398
 20
-37.68100196769956
 10
-12.08777850341039
 20
-37.68100196769956
 42
-0.4142135623730955
 10
-13.0877785034104
 20
-36.68100196769956
 42
0.4142135623730935
 10
-14.08777850341039
 20
-35.68100196769956
 10
-28.96375506591038
 20
-35.68100196769956
 42
0.4142135623730898
 10
-29.96375506591034
 20
-36.68100196769956
 42
-0.4142135623730919
 10
-30.96375506591034
 20
-37.68100196769956
 10
-35.96375506591033
 20
-37.68100196769956
 42
-0.4142135623730888
 10
-36.96375506591033
 20
-36.68100196769956
 42
0.4142135623730971
 10
-37.96375506591033
 20
-35.68100196769956
 10
-39.41311646334034
 20
-35.68100196769957
 42
-0.04099856678961347
 10
-39.57628607650695
 20
-35.66759999999999
 10
-40.43150000000001
 20
-35.66759999999998
 10
-40.43150000000001
 20
-35.0683
 10
-41.2323
 20
-35.0683
 10
-41.2323
 20
-22.26769999999999
 10
-40.43150000000001
 20
-22.26769999999999
 10
-40.43150000000001
 20
-21.66830000000001
 10
-37.80964098939647
 20
-21.66830000000001
 42
0.3661354358202155
 10
-36.96375506590982
 20
-20.69234393539904
 42
-0.4211569531144043
 10
-35.96375506591032
 20
-19.66800000000004
 10
-30.96375506591034
 20
-19.66800000000008
 42
-0.4142135623730971
 10
-29.96375506591037
 20
-20.66800000000006
 42
0.4142135623731221
 10
-28.96375506591035
 20
-21.6680000000001
 10
-14.08777850341036
 20
-21.66799999999995
 42
0.4142135623730898
 10
-13.08777850341034
 20
-20.66800000000006
 42
-0.4142135623731294
 10
-12.0877785034104
 20
-19.66800000000001
 10
-7.087778503410402
 20
-19.66800000000007
 42
-0.4142135623730969
  0
LWPOLYLINE
  5
99
100
AcDbEntity
  8
0
  6
ByLayer
 62
  256
370
   -1
100
AcDbPolyline
 90
   12
 70
    1
 43
0
 10
-135.97
 20
-78.81830000000001
 10
-135.97
 20
-79.41770000000004
 10
-135.17
 20
-79.41770000000004
 10
-135.17
 20
-92.21819999999997
 10
-135.97
 20
-92.21819999999997
 10
-135.97
 20
-92.81760000000003
 10
-149.9690000000001
 20
-92.81760000000003
 10
-149.9690000000001
 20
-92.21819999999997
 10
-150.77
 20
-92.21819999999997
 10
-150.77
 20
-79.41770000000004
 10
-149.9690000000001
 20
-79.41770000000004
 10
-149.9690000000001
 20
-78.81830000000001
  0
LWPOLYLINE
  5
9A
100
AcDbEntity
  8
0
  6
ByLayer
 62
  256
370
   -1
100
AcDbPolyline
 90
   12
 70
    1
 43
0
 10
-168.506
 20
-41.3177
 10
-168.506
 20
-54.11820000000002
 10
-169.307
 20
-54.11820000000002
 10
-169.307
 20
-54.7176
 10
-183.3070000000001
 20
-54.7176
 10
-183.3070000000001
 20
-54.11820000000002
 10
-184.1070000000001
 20
-54.11820000000002
 10
-184.1070000000001
 20
-41.3177
 10
-183.3070000000001
 20
-41.3177
 10
-183.3070000000001
 20
-40.71830000000001
 10
-169.307
 20
-40.71830000000001
 10
-169.307
 20
-41.3177
  0
LWPOLYLINE
  5
9B
100
AcDbEntity
  8
0
  6
ByLayer
 62
  256
370
   -1
100
AcDbPolyline
 90
   12
 70
    1
 43
0
 10
-107.107
 20
-40.71830000000001
 10
-93.10720000000002
 20
-40.71830000000001
 10
-93.10720000000002
 20
-41.3177
 10
-92.3064
 20
-41.3177
 10
-92.3064
 20
-54.11820000000002
 10
-93.10720000000002
 20
-54.11820000000002
 10
-93.10720000000002
 20
-54.7176
 10
-107.107
 20
-54.7176
 10
-107.107
 20
-54.11820000000002
 10
-107.907
 20
-54.11820000000002
 10
-107.907
 20
-41.3177
 10
-107.107
 20
-41.3177
  0
LWPOLYLINE
  5
9C
100
AcDbEntity
  8
0
  6
ByLayer
 62
  256
370
   -1
100
AcDbPolyline
 90
   12
 70
    1
 43
0
 10
-230.932
 20
-16.61780000000001
 10
-230.932
 20
-16.0183
 10
-231.7320000000001
 20
-16.0183
 10
-231.7320000000001
 20
-3.217719999999994
 10
-230.932
 20
-3.217719999999994
 10
-230.932
 20
-2.618270000000003
 10
-216.932
 20
-2.618270000000003
 10
-216.932
 20
-3.217719999999994
 10
-216.131
 20
-3.217719999999993
 10
-216.131
 20
-16.0183
 10
-216.932
 20
-16.0183
 10
-216.932
 20
-16.61780000000001
  0
LWPOLYLINE
  5
9D
100
AcDbEntity
  8
0
  6
ByLayer
 62
  256
370
   -1
100
AcDbPolyline
 90
   12
 70
    1
 43
0
 10
-179.345
 20
-60.36770000000001
 10
-178.544
 20
-60.36770000000001
 10
-178.544
 20
-59.7683
 10
-164.5450000000001
 20
-59.7683
 10
-164.5450000000001
 20
-60.36770000000001
 10
-163.7450000000001
 20
-60.36770000000001
 10
-163.7450000000001
 20
-73.1682
 10
-164.5450000000001
 20
-73.1682
 10
-164.5450000000001
 20
-73.76760000000002
 10
-178.544
 20
-73.76760000000002
 10
-178.544
 20
-73.1682
 10
-179.345
 20
-73.1682
  0
LWPOLYLINE
  5
9E
100
AcDbEntity
  8
0
  6
ByLayer
 62
  256
370
   -1
100
AcDbPolyline
 90
   12
 70
    1
 43
0
 10
-178.031
 20
-35.0683
 10
-178.8320000000001
 20
-35.0683
 10
-178.8320000000001
 20
-35.66759999999998
 10
-192.832
 20
-35.66759999999998
 10
-192.832
 20
-35.0683
 10
-193.6320000000001
 20
-35.0683
 10
-193.6320000000001
 20
-22.26769999999999
 10
-192.832
 20
-22.26769999999999
 10
-192.832
 20
-21.66830000000001
 10
-178.8320000000001
 20
-21.66830000000001
 10
-178.8320000000001
 20
-22.26769999999999
 10
-178.031
 20
-22.26769999999999
  0
LWPOLYLINE
  5
9F
100
AcDbEntity
  8
0
  6
ByLayer
 62
  256
370
   -1
100
AcDbPolyline
 90
   12
 70
    1
 43
0
 10
-231.7320000000001
 20
-22.26769999999999
 10
-230.932
 20
-22.26769999999999
 10
-230.932
 20
-21.66830000000001
 10
-216.932
 20
-21.66830000000001
 10
-216.932
 20
-22.26769999999999
 10
-216.131
 20
-22.26769999999999
 10
-216.131
 20
-35.0683
 10
-216.932
 20
-35.0683
 10
-216.932
 20
-35.66759999999998
 10
-230.932
 20
-35.66759999999998
 10
-230.932
 20
-35.0683
 10
-231.7320000000001
 20
-35.0683
  0
LWPOLYLINE
  5
A0
100
AcDbEntity
  8
0
  6
ByLayer
 62
  256
370
   -1
100
AcDbPolyline
 90
   12
 70
    1
 43
0
 10
-78.53149999999999
 20
-21.66830000000001
 10
-64.53220000000002
 20
-21.66830000000001
 10
-64.53220000000002
 20
-22.26769999999999
 10
-63.73140000000003
 20
-22.26769999999999
 10
-63.73140000000003
 20
-35.0683
 10
-64.53220000000002
 20
-35.0683
 10
-64.53220000000002
 20
-35.66759999999998
 10
-78.53149999999999
 20
-35.66759999999998
 10
-78.53149999999999
 20
-35.0683
 10
-79.33230000000002
 20
-35.0683
 10
-79.33230000000002
 20
-22.26769999999999
 10
-78.53149999999999
 20
-22.26769999999999
  0
LWPOLYLINE
  5
A1
100
AcDbEntity
  8
0
  6
ByLayer
 62
  256
370
   -1
100
AcDbPolyline
 90
   12
 70
    1
 43
0
 10
-236.495
 20
-73.1682
 10
-236.495
 20
-60.36770000000001
 10
-235.694
 20
-60.36770000000001
 10
-235.694
 20
-59.7683
 10
-221.695
 20
-59.7683
 10
-221.695
 20
-60.36770000000001
 10
-220.895
 20
-60.36770000000001
 10
-220.895
 20
-73.1682
 10
-221.695
 20
-73.1682
 10
-221.695
 20
-73.76760000000002
 10
-235.694
 20
-73.76760000000002
 10
-235.694
 20
-73.1682
  0
LWPOLYLINE
  5
A2
100
AcDbEntity
  8
0
  6
ByLayer
 62
  256
370
   -1
100
AcDbPolyline
 90
   12
 70
    1
 43
0
 10
-78.81970000000003
 20
-78.81830000000001
 10
-78.81970000000003
 20
-79.41770000000004
 10
-78.02030000000002
 20
-79.41770000000004
 10
-78.02030000000002
 20
-92.21819999999997
 10
-78.81970000000003
 20
-92.21819999999997
 10
-78.81970000000003
 20
-92.81760000000003
 10
-92.819
 20
-92.81760000000003
 10
-92.819
 20
-92.21819999999997
 10
-93.61839999999999
 20
-92.21819999999997
 10
-93.61839999999999
 20
-79.41770000000004
 10
-92.819
 20
-79.41770000000004
 10
-92.819
 20
-78.81830000000001
  0
LWPOLYLINE
  5
A3
100
AcDbEntity
  8
0
  6
ByLayer
 62
  256
370
   -1
100
AcDbPolyline
 90
   12
 70
    1
 43
0
 10
-225.656
 20
-54.11820000000002
 10
-226.4570000000001
 20
-54.11820000000002
 10
-226.4570000000001
 20
-54.7176
 10
-240.4570000000001
 20
-54.7176
 10
-240.4570000000001
 20
-54.11820000000002
 10
-241.257
 20
-54.11820000000002
 10
-241.257
 20
-41.3177
 10
-240.4570000000001
 20
-41.3177
 10
-240.4570000000001
 20
-40.71830000000001
 10
-226.4570000000001
 20
-40.71830000000001
 10
-226.4570000000001
 20
-41.3177
 10
-225.656
 20
-41.3177
  0
CIRCLE
  5
A4
100
AcDbEntity
  8
0
  6
ByLayer
 62
  256
370
   -1
100
AcDbCircle
 10
5.204915363304088
 20
-47.71689507119571
 40
1.149999999999984
  0
CIRCLE
  5
A5
100
AcDbEntity
  8
0
  6
ByLayer
 62
  256
370
   -1
100
AcDbCircle
 10
-291.1449999633041
 20
-47.71689507119568
 40
1.149999999999984
  0
LWPOLYLINE
  5
A6
100
AcDbEntity
  8
0
  6
ByLayer
 62
  256
370
   -1
100
AcDbPolyline
 90
   12
 70
    1
 43
0
 10
-5.000910000000012
 20
-54.7176
 10
-23.76290000000001
 20
-54.7176
 10
-23.76290000000001
 20
-54.11820000000002
 10
-24.56219999999998
 20
-54.11820000000002
 10
-24.56219999999998
 20
-41.3177
 10
-23.76290000000001
 20
-41.3177
 10
-23.76290000000001
 20
-40.71830000000001
 10
-5.000910000000012
 20
-40.71830000000001
 10
-5.000910000000012
 20
-41.3177
 10
-4.200279999999985
 20
-41.3177
 10
-4.200279999999985
 20
-54.11820000000002
 10
-5.000910000000012
 20
-54.11820000000002
  0
LWPOLYLINE
  5
A7
100
AcDbEntity
  8
0
  6
ByLayer
 62
  256
370
   -1
100
AcDbPolyline
 90
   12
 70
    1
 43
0
 10
-226.169
 20
-79.41770000000004
 10
-226.169
 20
-78.81830000000001
 10
-212.17
 20
-78.81830000000001
 10
-212.17
 20
-79.41770000000004
 10
-211.37
 20
-79.41770000000004
 10
-211.37
 20
-92.21819999999997
 10
-212.17
 20
-92.21819999999997
 10
-212.17
 20
-92.81760000000003
 10
-226.169
 20
-92.81760000000003
 10
-226.169
 20
-92.21819999999997
 10
-226.97
 20
-92.21819999999997
 10
-226.97
 20
-79.41770000000004
  0
LWPOLYLINE
  5
A8
100
AcDbEntity
  8
0
  6
ByLayer
 62
  256
370
   -1
100
AcDbPolyline
 90
   12
 70
    1
 43
0
 10
-30.39540000000002
 20
-3.217719999999993
 10
-30.39540000000002
 20
-16.0183
 10
-31.1947
 20
-16.0183
 10
-31.1947
 20
-16.61780000000001
 10
-45.19400000000001
 20
-16.61780000000001
 10
-45.19400000000001
 20
-16.0183
 10
-45.9948
 20
-16.0183
 10
-45.9948
 20
-3.217719999999994
 10
-45.19400000000001
 20
-3.217719999999994
 10
-45.19400000000001
 20
-2.618270000000003
 10
-31.1947
 20
-2.618270000000003
 10
-31.1947
 20
-3.217719999999994
  0
LWPOLYLINE
  5
A9
100
AcDbEntity
  8
0
  6
ByLayer
 62
  256
370
   -1
100
AcDbPolyline
 90
   12
 70
    1
 43
0
 10
-245.219
 20
-78.81830000000001
 10
-231.22
 20
-78.81830000000001
 10
-231.22
 20
-79.41770000000004
 10
-230.42
 20
-79.41770000000004
 10
-230.42
 20
-92.21819999999997
 10
-231.22
 20
-92.21819999999997
 10
-231.22
 20
-92.81760000000003
 10
-245.219
 20
-92.81760000000003
 10
-245.219
 20
-92.21819999999997
 10
-246.02
 20
-92.21819999999997
 10
-246.02
 20
-79.41770000000004
 10
-245.219
 20
-79.41770000000004
  0
LWPOLYLINE
  5
AA
100
AcDbEntity
  8
0
  6
ByLayer
 62
  256
370
   -1
100
AcDbPolyline
 90
   12
 70
    1
 43
0
 10
-125.644
 20
-60.36770000000001
 10
-125.644
 20
-73.1682
 10
-126.445
 20
-73.1682
 10
-126.445
 20
-73.76760000000002
 10
-140.444
 20
-73.76760000000002
 10
-140.444
 20
-73.1682
 10
-141.2450000000001
 20
-73.1682
 10
-141.2450000000001
 20
-60.36770000000001
 10
-140.444
 20
-60.36770000000001
 10
-140.444
 20
-59.7683
 10
-126.445
 20
-59.7683
 10
-126.445
 20
-60.36770000000001
  0
LWPOLYLINE
  5
AB
100
AcDbEntity
  8
0
  6
ByLayer
 62
  256
370
   -1
100
AcDbPolyline
 90
   12
 70
    1
 43
0
 10
-45.19400000000001
 20
-73.1682
 10
-45.9948
 20
-73.1682
 10
-45.9948
 20
-60.36770000000001
 10
-45.19400000000001
 20
-60.36770000000001
 10
-45.19400000000001
 20
-59.7683
 10
-31.1947
 20
-59.7683
 10
-31.1947
 20
-60.36770000000001
 10
-30.39540000000002
 20
-60.36770000000001
 10
-30.39540000000002
 20
-73.1682
 10
-31.1947
 20
-73.1682
 10
-31.1947
 20
-73.76760000000002
 10
-45.19400000000001
 20
-73.76760000000002
  0
LWPOLYLINE
  5
AC
100
AcDbEntity
  8
0
  6
ByLayer
 62
  256
370
   -1
100
AcDbPolyline
 90
   36
 70
    1
 43
0
 10
-250.2695
 20
-77.81799389648006
 10
-250.2695
 20
-79.41770000000002
 10
-249.47
 20
-79.41770000000004
 10
-249.47
 20
-92.21819999999997
 10
-250.27
 20
-92.21819999999997
 10
-250.27
 20
-92.81760000000003
 10
-251.2414351143661
 20
-92.81760000000003
 42
-0.007017257952933885
 10
-251.2695
 20
-92.81799389648006
 10
-251.3565239257799
 20
-92.81799389648006
 10
-251.3565239257798
 20
-93.81799389648006
 42
-0.4142135623731117
 10
-252.3565239257799
 20
-94.81799389648005
 10
-257.3565239257799
 20
-94.81799389648003
 42
-0.4142135623731117
 10
-258.3565239257799
 20
-93.81799389648006
 42
0.4142135623730867
 10
-259.3565239257799
 20
-92.81799389648006
 10
-274.23250048828
 20
-92.81799389648006
 42
0.4142135623730576
 10
-275.23250048828
 20
-93.81799389648006
 42
-0.414213562373095
 10
-276.2325004882801
 20
-94.81799389648006
 10
-281.2325004882801
 20
-94.81799389648006
 42
-0.4142135623730659
 10
-282.2325004882801
 20
-93.81799389648006
 10
-282.23250048828
 20
-92.81799389648006
 10
-282.31956713867
 20
-92.81799389648
 42
-0.007017257952622341
 10
-282.3476320243026
 20
-92.81760000000001
 10
-283.3190000000001
 20
-92.81760000000003
 10
-283.3190000000001
 20
-92.21819999999997
 10
-284.1200000000001
 20
-92.21819999999997
 10
-284.1200000000001
 20
-79.41770000000004
 10
-283.3195671386702
 20
-79.41770000000002
 10
-283.31956713867
 20
-77.81799389648006
 42
-0.41421356237312
 10
-282.31956713867
 20
-76.81799389648006
 10
-276.2325004882801
 20
-76.81799389648006
 42
-0.4142135623730867
 10
-275.2325004882801
 20
-77.81799389648006
 42
0.4142135623730742
 10
-274.2325004882802
 20
-78.8179938964801
 10
-259.35652392578
 20
-78.81799389647996
 42
0.4142135623731034
 10
-258.3565239257799
 20
-77.81799389648008
 42
-0.414213562373145
 10
-257.3565239257801
 20
-76.81799389648013
 10
-251.2695
 20
-76.81799389648008
 42
-0.4142135623730909
  0
LWPOLYLINE
  5
AD
100
AcDbEntity
  8
0
  6
ByLayer
 62
  256
370
   -1
100
AcDbPolyline
 90
   12
 70
    1
 43
0
 10
-106.595
 20
-73.1682
 10
-107.395
 20
-73.1682
 10
-107.395
 20
-73.76760000000002
 10
-121.394
 20
-73.76760000000002
 10
-121.394
 20
-73.1682
 10
-122.195
 20
-73.1682
 10
-122.195
 20
-60.36770000000001
 10
-121.394
 20
-60.36770000000001
 10
-121.394
 20
-59.7683
 10
-107.395
 20
-59.7683
 10
-107.395
 20
-60.36770000000001
 10
-106.595
 20
-60.36770000000001
  0
CIRCLE
  5
AE
100
AcDbEntity
  8
0
  6
ByLayer
 62
  256
370
   -1
100
AcDbCircle
 10
-142.9700423
 20
-100.6424
 40
1.150000000000002
  0
LWPOLYLINE
  5
AF
100
AcDbEntity
  8
0
  6
ByLayer
 62
  256
370
   -1
100
AcDbPolyline
 90
   12
 70
    1
 43
0
 10
-74.56980000000001
 20
-92.21819999999997
 10
-74.56980000000001
 20
-79.41770000000004
 10
-73.76899999999999
 20
-79.41770000000004
 10
-73.76899999999999
 20
-78.81830000000001
 10
-59.76970000000001
 20
-78.81830000000001
 10
-59.76970000000001
 20
-79.41770000000004
 10
-58.97030000000001
 20
-79.41770000000004
 10
-58.97030000000001
 20
-92.21819999999997
 10
-59.76970000000001
 20
-92.21819999999997
 10
-59.76970000000001
 20
-92.81760000000003
 10
-73.76899999999999
 20
-92.81760000000003
 10
-73.76899999999999
 20
-92.21819999999997
  0
CIRCLE
  5
B0
100
AcDbEntity
  8
0
  6
ByLayer
 62
  256
370
   -1
100
AcDbCircle
 10
-142.9700423
 20
5.207671400000007
 40
1.150000000000002
  0
LWPOLYLINE
  5
B1
100
AcDbEntity
  8
0
  6
ByLayer
 62
  256
370
   -1
100
AcDbPolyline
 90
   12
 70
    1
 43
0
 10
-111.869
 20
-79.41770000000004
 10
-111.869
 20
-78.81830000000001
 10
-97.86830000000002
 20
-78.81830000000001
 10
-97.86830000000002
 20
-79.41770000000004
 10
-97.07030000000002
 20
-79.41770000000004
 10
-97.07030000000002
 20
-92.21819999999997
 10
-97.86830000000002
 20
-92.21819999999997
 10
-97.86830000000002
 20
-92.81760000000003
 10
-111.869
 20
-92.81760000000003
 10
-111.869
 20
-92.21819999999997
 10
-112.668
 20
-92.21819999999997
 10
-112.668
 20
-79.41770000000004
  0
LWPOLYLINE
  5
B2
100
AcDbEntity
  8
0
  6
ByLayer
 62
  256
370
   -1
100
AcDbPolyline
 90
   12
 70
    1
 43
0
 10
-155.532
 20
-35.0683
 10
-155.532
 20
-22.26769999999999
 10
-154.732
 20
-22.26769999999999
 10
-154.732
 20
-21.66830000000001
 10
-140.732
 20
-21.66830000000001
 10
-140.732
 20
-22.26769999999999
 10
-139.931
 20
-22.26769999999999
 10
-139.931
 20
-35.0683
 10
-140.732
 20
-35.0683
 10
-140.732
 20
-35.66759999999998
 10
-154.732
 20
-35.66759999999998
 10
-154.732
 20
-35.0683
  0
LWPOLYLINE
  5
B3
100
AcDbEntity
  8
0
  6
ByLayer
 62
  256
370
   -1
100
AcDbPolyline
 90
   12
 70
    1
 43
0
 10
-35.9572
 20
-54.11820000000002
 10
-35.9572
 20
-54.7176
 10
-49.95650000000001
 20
-54.7176
 10
-49.95650000000001
 20
-54.11820000000002
 10
-50.7573
 20
-54.11820000000002
 10
-50.7573
 20
-41.3177
 10
-49.95650000000001
 20
-41.3177
 10
-49.95650000000001
 20
-40.71830000000001
 10
-35.9572
 20
-40.71830000000001
 10
-35.9572
 20
-41.3177
 10
-35.15650000000001
 20
-41.3177
 10
-35.15650000000001
 20
-54.11820000000002
  0
CIRCLE
  5
B4
100
AcDbEntity
  8
0
  6
ByLayer
 62
  256
370
   -1
100
AcDbCircle
 10
-242.9700423
 20
-100.6424
 40
1.149999999999984
  0
LWPOLYLINE
  5
B5
100
AcDbEntity
  8
0
  6
ByLayer
 62
  256
370
   -1
100
AcDbPolyline
 90
   12
 70
    1
 43
0
 10
-88.85730000000002
 20
-41.3177
 10
-88.0565
 20
-41.3177
 10
-88.0565
 20
-40.71830000000001
 10
-74.05720000000002
 20
-40.71830000000001
 10
-74.05720000000002
 20
-41.3177
 10
-73.2564
 20
-41.3177
 10
-73.2564
 20
-54.11820000000002
 10
-74.05720000000002
 20
-54.11820000000002
 10
-74.05720000000002
 20
-54.7176
 10
-88.0565
 20
-54.7176
 10
-88.0565
 20
-54.11820000000002
 10
-88.85730000000002
 20
-54.11820000000002
  0
LWPOLYLINE
  5
B6
100
AcDbEntity
  8
0
  6
ByLayer
 62
  256
370
   -1
100
AcDbPolyline
 90
   12
 70
    1
 43
0
 10
-169.0190000000001
 20
-78.81830000000001
 10
-155.02
 20
-78.81830000000001
 10
-155.02
 20
-79.41770000000004
 10
-154.22
 20
-79.41770000000004
 10
-154.22
 20
-92.21819999999997
 10
-155.02
 20
-92.21819999999997
 10
-155.02
 20
-92.81760000000003
 10
-169.0190000000001
 20
-92.81760000000003
 10
-169.0190000000001
 20
-92.21819999999997
 10
-169.82
 20
-92.21819999999997
 10
-169.82
 20
-79.41770000000004
 10
-169.0190000000001
 20
-79.41770000000004
  0
LWPOLYLINE
  5
B7
100
AcDbEntity
  8
0
  6
ByLayer
 62
  256
370
   -1
100
AcDbPolyline
 90
   12
 70
    1
 43
0
 10
-160.295
 20
-73.1682
 10
-160.295
 20
-60.36770000000001
 10
-159.494
 20
-60.36770000000001
 10
-159.494
 20
-59.7683
 10
-145.495
 20
-59.7683
 10
-145.495
 20
-60.36770000000001
 10
-144.6950000000001
 20
-60.36770000000001
 10
-144.6950000000001
 20
-73.1682
 10
-145.495
 20
-73.1682
 10
-145.495
 20
-73.76760000000002
 10
-159.494
 20
-73.76760000000002
 10
-159.494
 20
-73.1682
  0
LWPOLYLINE
  5
B8
100
AcDbEntity
  8
0
  6
ByLayer
 62
  256
370
   -1
100
AcDbPolyline
 90
   12
 70
    1
 43
0
 10
-165.057
 20
-41.3177
 10
-164.2570000000001
 20
-41.3177
 10
-164.2570000000001
 20
-40.71830000000001
 10
-150.2569999999999
 20
-40.71830000000001
 10
-150.2569999999999
 20
-41.3177
 10
-149.4560000000001
 20
-41.3177
 10
-149.4560000000001
 20
-54.11820000000002
 10
-150.2569999999999
 20
-54.11820000000002
 10
-150.2569999999999
 20
-54.7176
 10
-164.2570000000001
 20
-54.7176
 10
-164.2570000000001
 20
-54.11820000000002
 10
-165.057
 20
-54.11820000000002
  0
LWPOLYLINE
  5
B9
100
AcDbEntity
  8
0
  6
ByLayer
 62
  256
370
   -1
100
AcDbPolyline
 90
   12
 70
    1
 43
0
 10
-83.29399999999995
 20
-59.7683
 10
-69.29470000000002
 20
-59.7683
 10
-69.29470000000002
 20
-60.36770000000001
 10
-68.49530000000001
 20
-60.36770000000001
 10
-68.49530000000001
 20
-73.1682
 10
-69.29470000000002
 20
-73.1682
 10
-69.29470000000002
 20
-73.76760000000002
 10
-83.29399999999995
 20
-73.76760000000002
 10
-83.29399999999995
 20
-73.1682
 10
-84.09479999999999
 20
-73.1682
 10
-84.09479999999999
 20
-60.36770000000001
 10
-83.29399999999995
 20
-60.36770000000001
  0
LWPOLYLINE
  5
BA
100
AcDbEntity
  8
0
  6
ByLayer
 62
  256
370
   -1
100
AcDbPolyline
 90
   12
 70
    1
 43
0
 10
-64.24400000000003
 20
-73.76760000000002
 10
-64.24400000000003
 20
-73.1682
 10
-65.04480000000001
 20
-73.1682
 10
-65.04480000000001
 20
-60.36770000000001
 10
-64.24400000000003
 20
-60.36770000000001
 10
-64.24400000000003
 20
-59.7683
 10
-50.24470000000001
 20
-59.7683
 10
-50.24470000000001
 20
-60.36770000000001
 10
-49.4453
 20
-60.36770000000001
 10
-49.4453
 20
-73.1682
 10
-50.24470000000001
 20
-73.1682
 10
-50.24470000000001
 20
-73.76760000000002
  0
LWPOLYLINE
  5
BB
100
AcDbEntity
  8
0
  6
ByLayer
 62
  256
370
   -1
100
AcDbPolyline
 90
   12
 70
    1
 43
0
 10
-239.945
 20
-73.1682
 10
-240.745
 20
-73.1682
 10
-240.745
 20
-73.76760000000002
 10
-254.744
 20
-73.76760000000002
 10
-254.744
 20
-73.1682
 10
-255.545
 20
-73.1682
 10
-255.545
 20
-60.36770000000001
 10
-254.744
 20
-60.36770000000001
 10
-254.744
 20
-59.7683
 10
-240.745
 20
-59.7683
 10
-240.745
 20
-60.36770000000001
 10
-239.945
 20
-60.36770000000001
  0
LWPOLYLINE
  5
BC
100
AcDbEntity
  8
0
  6
ByLayer
 62
  256
370
   -1
100
AcDbPolyline
 90
   12
 70
    1
 43
0
 10
-183.595
 20
-73.76760000000002
 10
-197.5940000000001
 20
-73.76760000000002
 10
-197.5940000000001
 20
-73.1682
 10
-198.395
 20
-73.1682
 10
-198.395
 20
-60.36770000000001
 10
-197.5940000000001
 20
-60.36770000000001
 10
-197.5940000000001
 20
-59.7683
 10
-183.595
 20
-59.7683
 10
-183.595
 20
-60.36770000000001
 10
-182.795
 20
-60.36770000000001
 10
-182.795
 20
-73.1682
 10
-183.595
 20
-73.1682
  0
LWPOLYLINE
  5
BD
100
AcDbEntity
  8
0
  6
ByLayer
 62
  256
370
   -1
100
AcDbPolyline
 90
   12
 70
    1
 43
0
 10
-59.48150000000002
 20
-35.0683
 10
-60.28230000000001
 20
-35.0683
 10
-60.28230000000001
 20
-22.26769999999999
 10
-59.48150000000002
 20
-22.26769999999999
 10
-59.48150000000002
 20
-21.66830000000001
 10
-45.48220000000001
 20
-21.66830000000001
 10
-45.48220000000001
 20
-22.26769999999999
 10
-44.68140000000002
 20
-22.26769999999999
 10
-44.68140000000002
 20
-35.0683
 10
-45.48220000000001
 20
-35.0683
 10
-45.48220000000001
 20
-35.66759999999998
 10
-59.48150000000002
 20
-35.66759999999998
  0
LWPOLYLINE
  5
BE
100
AcDbEntity
  8
0
  6
ByLayer
 62
  256
370
   -1
100
AcDbPolyline
 90
   12
 70
    1
 43
0
 10
-116.119
 20
-79.41770000000004
 10
-116.119
 20
-92.21819999999997
 10
-116.918
 20
-92.21819999999997
 10
-116.918
 20
-92.81760000000003
 10
-130.919
 20
-92.81760000000003
 10
-130.919
 20
-92.21819999999997
 10
-131.72
 20
-92.21819999999997
 10
-131.72
 20
-79.41770000000004
 10
-130.919
 20
-79.41770000000004
 10
-130.919
 20
-78.81830000000001
 10
-116.918
 20
-78.81830000000001
 10
-116.918
 20
-79.41770000000004
  0
LWPOLYLINE
  5
BF
100
AcDbEntity
  8
0
  6
ByLayer
 62
  256
370
   -1
100
AcDbPolyline
 90
   12
 70
    1
 43
0
 10
-54.71900000000002
 20
-92.21819999999997
 10
-55.5198
 20
-92.21819999999997
 10
-55.5198
 20
-79.41770000000004
 10
-54.71900000000002
 20
-79.41770000000004
 10
-54.71900000000002
 20
-78.81830000000001
 10
-40.7197
 20
-78.81830000000001
 10
-40.7197
 20
-79.41770000000004
 10
-39.9203
 20
-79.41770000000004
 10
-39.9203
 20
-92.21819999999997
 10
-40.7197
 20
-92.21819999999997
 10
-40.7197
 20
-92.81760000000003
 10
-54.71900000000002
 20
-92.81760000000003
  0
LWPOLYLINE
  5
C0
100
AcDbEntity
  8
0
  6
ByLayer
 62
  256
370
   -1
100
AcDbPolyline
 90
   12
 70
    1
 43
0
 10
-254.744
 20
-2.618270000000003
 10
-240.745
 20
-2.618270000000003
 10
-240.745
 20
-3.217719999999994
 10
-239.945
 20
-3.217719999999993
 10
-239.945
 20
-16.0183
 10
-240.745
 20
-16.0183
 10
-240.745
 20
-16.61780000000001
 10
-254.744
 20
-16.61780000000001
 10
-254.744
 20
-16.0183
 10
-255.545
 20
-16.0183
 10
-255.545
 20
-3.217719999999994
 10
-254.744
 20
-3.217719999999994
  0
LWPOLYLINE
  5
C1
100
AcDbEntity
  8
0
  6
ByLayer
 62
  256
370
   -1
100
AcDbPolyline
 90
   12
 70
    1
 43
0
 10
-202.645
 20
-73.76760000000002
 10
-216.644
 20
-73.76760000000002
 10
-216.644
 20
-73.1682
 10
-217.445
 20
-73.1682
 10
-217.445
 20
-60.36770000000001
 10
-216.644
 20
-60.36770000000001
 10
-216.644
 20
-59.7683
 10
-202.645
 20
-59.7683
 10
-202.645
 20
-60.36770000000001
 10
-201.845
 20
-60.36770000000001
 10
-201.845
 20
-73.1682
 10
-202.645
 20
-73.1682
  0
LWPOLYLINE
  5
C2
100
AcDbEntity
  8
0
  6
ByLayer
 62
  256
370
   -1
100
AcDbPolyline
 90
   12
 70
    1
 43
0
 10
-197.882
 20
-21.66830000000001
 10
-197.882
 20
-22.26769999999999
 10
-197.081
 20
-22.26769999999999
 10
-197.081
 20
-35.0683
 10
-197.882
 20
-35.0683
 10
-197.882
 20
-35.66759999999998
 10
-211.882
 20
-35.66759999999998
 10
-211.882
 20
-35.0683
 10
-212.6820000000001
 20
-35.0683
 10
-212.6820000000001
 20
-22.26769999999999
 10
-211.882
 20
-22.26769999999999
 10
-211.882
 20
-21.66830000000001
  0
LWPOLYLINE
  5
C3
100
AcDbEntity
  8
0
  6
ByLayer
 62
  256
370
   -1
100
AcDbPolyline
 90
   12
 70
    1
 43
0
 10
-207.92
 20
-79.41770000000004
 10
-207.1190000000001
 20
-79.41770000000004
 10
-207.1190000000001
 20
-78.81830000000001
 10
-193.1200000000001
 20
-78.81830000000001
 10
-193.1200000000001
 20
-79.41770000000004
 10
-192.32
 20
-79.41770000000004
 10
-192.32
 20
-92.21819999999997
 10
-193.1200000000001
 20
-92.21819999999997
 10
-193.1200000000001
 20
-92.81760000000003
 10
-207.1190000000001
 20
-92.81760000000003
 10
-207.1190000000001
 20
-92.21819999999997
 10
-207.92
 20
-92.21819999999997
  0
LWPOLYLINE
  5
C4
100
AcDbEntity
  8
0
  6
ByLayer
 62
  256
370
   -1
100
AcDbPolyline
 90
   12
 70
    1
 43
0
 10
-69.80730000000001
 20
-54.11820000000002
 10
-69.80730000000001
 20
-41.3177
 10
-69.00650000000002
 20
-41.3177
 10
-69.00650000000002
 20
-40.71830000000001
 10
-55.00720000000001
 20
-40.71830000000001
 10
-55.00720000000001
 20
-41.3177
 10
-54.20640000000002
 20
-41.3177
 10
-54.20640000000002
 20
-54.11820000000002
 10
-55.00720000000001
 20
-54.11820000000002
 10
-55.00720000000001
 20
-54.7176
 10
-69.00650000000002
 20
-54.7176
 10
-69.00650000000002
 20
-54.11820000000002
  0
LWPOLYLINE
  5
C5
100
AcDbEntity
  8
0
  6
ByLayer
 62
  256
370
   -1
100
AcDbPolyline
 90
   12
 70
    1
 43
0
 10
-81.8511391505963
 20
-1.615293995945047
 10
-81.8511391505963
 20
-9.117119999999996
 10
-81.85069999999999
 20
-9.117119999999998
 10
-81.85069999999999
 20
-11.91729999999999
 10
-81.8511391505963
 20
-11.9173
 10
-81.85113915059631
 20
-17.61529399596906
 42
-0.414213562373094
 10
-82.85113915059631
 20
-18.61529399596906
 10
-88.96993915059619
 20
-18.61529399596905
 42
-0.4142135623730929
 10
-89.96993915059619
 20
-17.61529399596906
 10
-89.9699391505963
 20
-1.618000000000048
 42
-0.4142135623731023
 10
-88.9699391505963
 20
-0.618000000000076
 10
-82.85113915059631
 20
-0.6156741167592749
 42
-0.4144824250151237
  0
LWPOLYLINE
  5
C6
100
AcDbEntity
  8
0
  6
ByLayer
 62
  256
370
   -1
100
AcDbPolyline
 90
   12
 70
    1
 43
0
 10
-87.54530000000003
 20
-60.36770000000001
 10
-87.54530000000003
 20
-73.1682
 10
-88.34470000000002
 20
-73.1682
 10
-88.34470000000002
 20
-73.76760000000002
 10
-102.344
 20
-73.76760000000002
 10
-102.344
 20
-73.1682
 10
-103.145
 20
-73.1682
 10
-103.145
 20
-60.36770000000001
 10
-102.344
 20
-60.36770000000001
 10
-102.344
 20
-59.7683
 10
-88.34470000000002
 20
-59.7683
 10
-88.34470000000002
 20
-60.36770000000001
  0
LWPOLYLINE
  5
C7
100
AcDbEntity
  8
0
  6
ByLayer
 62
  256
370
   -1
100
AcDbPolyline
 90
   12
 70
    1
 43
0
 10
-111.356
 20
-54.11820000000002
 10
-112.157
 20
-54.11820000000002
 10
-112.157
 20
-54.7176
 10
-126.157
 20
-54.7176
 10
-126.157
 20
-54.11820000000002
 10
-126.957
 20
-54.11820000000002
 10
-126.957
 20
-41.3177
 10
-126.157
 20
-41.3177
 10
-126.157
 20
-40.71830000000001
 10
-112.157
 20
-40.71830000000001
 10
-112.157
 20
-41.3177
 10
-111.356
 20
-41.3177
  0
LWPOLYLINE
  5
C8
100
AcDbEntity
  8
0
  6
ByLayer
 62
  256
370
   -1
100
AcDbPolyline
 90
   12
 70
    1
 43
0
 10
-35.669
 20
-92.81760000000003
 10
-35.669
 20
-92.21819999999997
 10
-36.46979999999999
 20
-92.21819999999997
 10
-36.46979999999999
 20
-79.41770000000004
 10
-35.669
 20
-79.41770000000004
 10
-35.669
 20
-78.81830000000001
 10
-21.66969999999999
 20
-78.81830000000001
 10
-21.66969999999999
 20
-79.41770000000004
 10
-20.87039999999998
 20
-79.41770000000004
 10
-20.87039999999998
 20
-92.21819999999997
 10
-21.66969999999999
 20
-92.21819999999997
 10
-21.66969999999999
 20
-92.81760000000003
  0
LWPOLYLINE
  5
C9
100
AcDbEntity
  8
0
  6
ByLayer
 62
  256
370
   -1
100
AcDbPolyline
 90
   12
 70
    1
 43
0
 10
-158.981
 20
-35.0683
 10
-159.782
 20
-35.0683
 10
-159.782
 20
-35.66759999999998
 10
-173.7820000000001
 20
-35.66759999999998
 10
-173.7820000000001
 20
-35.0683
 10
-174.5820000000001
 20
-35.0683
 10
-174.5820000000001
 20
-22.26769999999999
 10
-173.7820000000001
 20
-22.26769999999999
 10
-173.7820000000001
 20
-21.66830000000001
 10
-159.782
 20
-21.66830000000001
 10
-159.782
 20
-22.26769999999999
 10
-158.981
 20
-22.26769999999999
  0
LWPOLYLINE
  5
CA
100
AcDbEntity
  8
0
  6
ByLayer
 62
  256
370
   -1
100
AcDbPolyline
 90
   12
 70
    1
 43
0
 10
-17.41980000000002
 20
-79.41770000000004
 10
-16.61920000000002
 20
-79.41770000000004
 10
-16.61920000000002
 20
-78.81830000000001
 10
-2.61965
 20
-78.81830000000001
 10
-2.61965
 20
-79.41770000000004
 10
-1.820389999999996
 20
-79.41770000000004
 10
-1.820389999999996
 20
-92.21819999999997
 10
-2.61965
 20
-92.21819999999997
 10
-2.61965
 20
-92.81760000000003
 10
-16.61920000000002
 20
-92.81760000000003
 10
-16.61920000000002
 20
-92.21819999999997
 10
-17.41980000000002
 20
-92.21819999999997
  0
LWPOLYLINE
  5
CB
100
AcDbEntity
  8
0
  6
ByLayer
 62
  256
370
   -1
100
AcDbPolyline
 90
   12
 70
    1
 43
0
 10
-206.606
 20
-41.3177
 10
-206.606
 20
-54.11820000000002
 10
-207.407
 20
-54.11820000000002
 10
-207.407
 20
-54.7176
 10
-221.4070000000001
 20
-54.7176
 10
-221.4070000000001
 20
-54.11820000000002
 10
-222.207
 20
-54.11820000000002
 10
-222.207
 20
-41.3177
 10
-221.4070000000001
 20
-41.3177
 10
-221.4070000000001
 20
-40.71830000000001
 10
-207.407
 20
-40.71830000000001
 10
-207.407
 20
-41.3177
  0
CIRCLE
  5
CC
100
AcDbEntity
  8
0
  6
ByLayer
 62
  256
370
   -1
100
AcDbCircle
 10
-42.97004230000005
 20
-100.6424
 40
1.150000000000002
  0
CIRCLE
  5
CD
100
AcDbEntity
  8
0
  6
ByLayer
 62
  256
370
   -1
100
AcDbCircle
 10
-42.97004230000002
 20
5.207671400000007
 40
1.150000000000002
  0
LWPOLYLINE
  5
CE
100
AcDbEntity
  8
0
  6
ByLayer
 62
  256
370
   -1
100
AcDbPolyline
 90
   12
 70
    1
 43
0
 10
-188.357
 20
-54.7176
 10
-202.3570000000001
 20
-54.7176
 10
-202.3570000000001
 20
-54.11820000000002
 10
-203.1570000000001
 20
-54.11820000000002
 10
-203.1570000000001
 20
-41.3177
 10
-202.3570000000001
 20
-41.3177
 10
-202.3570000000001
 20
-40.71830000000001
 10
-188.357
 20
-40.71830000000001
 10
-188.357
 20
-41.3177
 10
-187.556
 20
-41.3177
 10
-187.556
 20
-54.11820000000002
 10
-188.357
 20
-54.11820000000002
  0
LWPOLYLINE
  5
CF
100
AcDbEntity
  8
0
  6
ByLayer
 62
  256
370
   -1
100
AcDbPolyline
 90
   12
 70
    1
 43
0
 10
-188.0690000000001
 20
-79.41770000000004
 10
-188.0690000000001
 20
-78.81830000000001
 10
-174.0700000000001
 20
-78.81830000000001
 10
-174.0700000000001
 20
-79.41770000000004
 10
-173.27
 20
-79.41770000000004
 10
-173.27
 20
-92.21819999999997
 10
-174.0700000000001
 20
-92.21819999999997
 10
-174.0700000000001
 20
-92.81760000000003
 10
-188.0690000000001
 20
-92.81760000000003
 10
-188.0690000000001
 20
-92.21819999999997
 10
-188.87
 20
-92.21819999999997
 10
-188.87
 20
-79.41770000000004
  0
LWPOLYLINE
  5
D0
100
AcDbEntity
  8
0
  6
ByLayer
 62
  256
370
   -1
100
AcDbPolyline
 90
   12
 70
    1
 43
0
 10
-130.4060000000001
 20
-41.3177
 10
-130.4060000000001
 20
-54.11820000000002
 10
-131.207
 20
-54.11820000000002
 10
-131.207
 20
-54.7176
 10
-145.207
 20
-54.7176
 10
-145.207
 20
-54.11820000000002
 10
-146.007
 20
-54.11820000000002
 10
-146.007
 20
-41.3177
 10
-145.207
 20
-41.3177
 10
-145.207
 20
-40.71830000000001
 10
-131.207
 20
-40.71830000000001
 10
-131.207
 20
-41.3177
  0
LWPOLYLINE
  5
D1
100
AcDbEntity
  8
0
  6
ByLayer
 62
  256
370
   -1
100
AcDbPolyline
 90
   12
 70
    1
 43
0
 10
-121.682
 20
-35.66759999999998
 10
-135.682
 20
-35.66759999999998
 10
-135.682
 20
-35.0683
 10
-136.482
 20
-35.0683
 10
-136.482
 20
-22.26769999999999
 10
-135.682
 20
-22.26769999999999
 10
-135.682
 20
-21.66830000000001
 10
-121.682
 20
-21.66830000000001
 10
-121.682
 20
-22.26769999999999
 10
-120.881
 20
-22.26769999999999
 10
-120.881
 20
-35.0683
 10
-121.682
 20
-35.0683
  0
LWPOLYLINE
  5
D2
100
AcDbEntity
  8
0
  6
ByLayer
 62
  256
370
   -1
100
AcDbPolyline
 90
   43
 70
    1
 43
0
 10
-243.1258171386501
 20
-21.66830000000002
 42
-0.4142135623730617
 10
-244.1258171386501
 20
-20.66830000000012
 10
-244.1258171386501
 20
-20.66801831054017
 42
0.4142139633802814
 10
-245.1258171386501
 20
-19.66801774343034
 10
-250.4487090678501
 20
-19.66801472476566
 42
0.4142139633805557
 10
-251.4487090678501
 20
-20.66801415765575
 42
-0.4142135623731075
 10
-252.4487090678502
 20
-21.66801415765574
 10
-265.6507988281201
 20
-21.66800610351016
 10
-267.0911834535583
 20
-21.66800986956389
 42
-0.4135447116406326
 10
-268.08889931641
 20
-20.66801247820857
 42
0.4142154111899982
 10
-269.0888993164101
 20
-19.66801509282543
 10
-274.088899316412
 20
-19.66802816590933
 42
0.4142135623766871
 10
-275.0888967017951
 20
-20.66803078052615
 42
-0.4142135623730805
 10
-276.0888993164119
 20
-21.66803339514296
 10
-282.3195671386701
 20
-21.66804968595166
 42
0.005592726777803645
 10
-282.3419360454242
 20
-21.66830000000001
 10
-283.3190000000001
 20
-21.66830000000001
 10
-283.3190000000001
 20
-22.26769999999999
 10
-284.1200000000001
 20
-22.26769999999999
 10
-284.1200000000001
 20
-35.0683
 10
-283.3190000000001
 20
-35.0683
 10
-283.3190000000001
 20
-35.66759999999998
 10
-282.3484885168662
 20
-35.66759999999999
 42
0.007231478945303473
 10
-282.31956713867
 20
-35.66801831055023
 10
-276.0888993164115
 20
-35.66801831054023
 42
-0.4142135623734696
 10
-275.0888993164102
 20
-36.66801831054023
 42
0.4142064115422543
 10
-274.08889931641
 20
-37.66799389647989
 10
-269.08889931641
 20
-37.66799389648008
 42
0.4142135623731221
 10
-268.0888993164102
 20
-36.66799389647997
 42
-0.4142099870739485
 10
-267.08889931641
 20
-35.66800610351017
 10
-252.2128922363301
 20
-35.66800610351005
 42
-0.414213562425577
 10
-251.2128922362558
 20
-36.66800610351017
 42
0.4142099870212193
 10
-250.2128922363301
 20
-37.6679938964802
 10
-245.2128922363301
 20
-37.6679938964802
 42
0.4142135623731117
 10
-244.2128922363299
 20
-36.66799389647997
 10
-244.2128922363299
 20
-36.66760000000002
 42
-0.4142135623731075
 10
-243.2128922363299
 20
-35.66759999999998
 10
-235.9820000000001
 20
-35.66759999999998
 10
-235.9820000000001
 20
-35.0683
 10
-235.181
 20
-35.0683
 10
-235.181
 20
-22.26769999999999
 10
-235.9820000000001
 20
-22.26769999999999
 10
-235.9820000000001
 20
-21.66830000000001
  0
LWPOLYLINE
  5
D3
100
AcDbEntity
  8
0
  6
ByLayer
 62
  256
370
   -1
100
AcDbPolyline
 90
   13
 70
    1
 43
0
 10
-60.28230000000001
 20
-35.06830000000001
 10
-59.4815
 20
-35.06830000000001
 10
-59.4815
 20
-35.66759999999999
 10
-45.4822
 20
-35.66759999999999
 10
-45.4822
 20
-35.06830000000001
 10
-44.6814
 20
-35.06830000000001
 10
-44.6814
 20
-22.26769999999999
 10
-45.4822
 20
-22.26769999999999
 10
-45.4822
 20
-21.66830000000001
 10
-59.4815
 20
-21.66830000000001
 10
-59.4815
 20
-22.26769999999999
 10
-60.28230000000001
 20
-22.26769999999999
 10
-60.28230000000001
 20
-22.26769999999999
  0
LWPOLYLINE
  5
D4
100
AcDbEntity
  8
0
  6
ByLayer
 62
  256
370
   -1
100
AcDbPolyline
 90
   13
 70
    1
 43
0
 10
-55.00720000000001
 20
-16.61780000000001
 10
-69.00650000000002
 20
-16.61780000000001
 10
-69.00650000000002
 20
-16.0183
 10
-69.80730000000001
 20
-16.0183
 10
-69.80730000000001
 20
-3.217719999999994
 10
-69.00650000000002
 20
-3.217719999999994
 10
-69.00650000000002
 20
-2.618270000000003
 10
-55.00720000000001
 20
-2.618270000000003
 10
-55.00720000000001
 20
-3.217719999999994
 10
-54.20640000000002
 20
-3.217719999999993
 10
-54.20640000000002
 20
-16.0183
 10
-55.00720000000001
 20
-16.0183
 10
-55.00720000000001
 20
-16.0183
  0
LWPOLYLINE
  5
D5
100
AcDbEntity
  8
0
  6
ByLayer
 62
  256
370
   -1
100
AcDbPolyline
 90
   12
 70
    1
 43
0
 10
-95.48874999999998
 20
-2.618260000000014
 10
-109.48775
 20
-2.618260000000014
 10
-109.48775
 20
-3.217710000000004
 10
-110.28875
 20
-3.217710000000004
 10
-110.28875
 20
-16.01829000000001
 10
-109.48775
 20
-16.01829000000001
 10
-109.48775
 20
-16.61779000000001
 10
-95.48874999999998
 20
-16.61779000000001
 10
-95.48874999999998
 20
-16.01829000000001
 10
-94.68874999999997
 20
-16.01829000000001
 10
-94.68874999999997
 20
-3.217710000000004
 10
-95.48874999999998
 20
-3.217710000000004
  0
LWPOLYLINE
  5
D6
100
AcDbEntity
  8
0
  6
ByLayer
 62
  256
370
   -1
100
AcDbPolyline
 90
   12
 70
    1
 43
0
 10
-109.48775
 20
-2.618260000000014
 10
-95.48874999999998
 20
-2.618260000000014
 10
-95.48874999999998
 20
-3.217710000000004
 10
-94.68874999999997
 20
-3.217710000000004
 10
-94.68874999999997
 20
-16.01829000000001
 10
-95.48874999999998
 20
-16.01829000000001
 10
-95.48874999999998
 20
-16.61779000000001
 10
-109.48775
 20
-16.61779000000001
 10
-109.48775
 20
-16.01829000000001
 10
-110.28875
 20
-16.01829000000001
 10
-110.28875
 20
-3.217710000000005
 10
-109.48775
 20
-3.217710000000005
  0
LWPOLYLINE
  5
D7
100
AcDbEntity
  8
0
  6
ByLayer
 62
  256
370
   -1
100
AcDbPolyline
 90
   12
 70
    1
 43
0
 10
-176.4515
 20
-2.618260000000005
 10
-190.4505
 20
-2.618260000000005
 10
-190.4505
 20
-3.217709999999995
 10
-191.2515
 20
-3.217709999999995
 10
-191.2515
 20
-16.01829
 10
-190.4505
 20
-16.01829
 10
-190.4505
 20
-16.61779000000001
 10
-176.4515
 20
-16.61779000000001
 10
-176.4515
 20
-16.01829
 10
-175.6515
 20
-16.01829
 10
-175.6515
 20
-3.217709999999995
 10
-176.4515
 20
-3.217709999999995
  0
LWPOLYLINE
  5
D8
100
AcDbEntity
  8
0
  6
ByLayer
 62
  256
370
   -1
100
AcDbPolyline
 90
   12
 70
    1
 43
0
 10
-190.4505
 20
-2.618260000000006
 10
-176.4515
 20
-2.618260000000005
 10
-176.4515
 20
-3.217709999999995
 10
-175.6515
 20
-3.217709999999995
 10
-175.6515
 20
-16.01829
 10
-176.4515
 20
-16.01829
 10
-176.4515
 20
-16.61779000000001
 10
-190.4505
 20
-16.61779000000001
 10
-190.4505
 20
-16.01829
 10
-191.2515
 20
-16.01829
 10
-191.2515
 20
-3.217709999999996
 10
-190.4505
 20
-3.217709999999996
  0
ENDSEC
  0
SECTION
  2
OBJECTS
  0
DICTIONARY
  5
C
330
0
100
AcDbDictionary
281
    1
  3
ACAD_GROUP
350
D
  0
DICTIONARY
  5
D
330
C
100
AcDbDictionary
281
    1
  0
ENDSEC
  0
EOF
